<svg xmlns="http://www.w3.org/2000/svg" viewBox="0 0 50.35 50.35"><defs><style>.cls-1{fill:#fff;}</style></defs><g id="Layer_2" data-name="Layer 2"><g id="gia_tri" data-name="gia tri"><path class="cls-1" d="M7.65,14.51l-2.6-3.14c-.58-.71-.57-1,.07-1.7C6.66,8.13,8.19,6.59,9.73,5.06c.6-.6.95-.62,1.6-.09q1.51,1.23,3,2.49a.62.62,0,0,0,.78.09q2.36-1,4.75-2c.33-.13.46-.25.48-.6.11-1.34.25-2.67.38-4A.93.93,0,0,1,21.77,0h6.84c.7,0,1,.22,1.06.91q.21,1.88.36,3.75a1,1,0,0,0,.76,1c1.51.56,3,1.22,4.45,1.89a.68.68,0,0,0,.88-.09c1-.84,2-1.64,3-2.45.65-.54,1-.53,1.6.08Q43,7.39,45.3,9.73c.56.57.57.94.06,1.56-.83,1-1.67,2-2.53,3.05a.57.57,0,0,0-.06.72q1,2.35,2,4.74c.14.35.28.5.65.53,1.34.11,2.67.24,4,.38a.88.88,0,0,1,.92,1c0,2.32,0,4.64,0,7a.88.88,0,0,1-.87,1c-1.31.14-2.63.28-3.94.38a.7.7,0,0,0-.71.55c-.62,1.58-1.3,3.14-2,4.68a.63.63,0,0,0,.07.79c.85,1,1.67,2,2.49,3,.53.65.51,1-.07,1.6Q43,43,40.67,45.29c-.62.62-1,.62-1.65.05-1-.82-2-1.62-2.94-2.45a.61.61,0,0,0-.78-.08c-1.55.69-3.1,1.37-4.69,2a.76.76,0,0,0-.56.78c-.12,1.27-.23,2.54-.37,3.81-.09.78-.35,1-1.12,1H21.85c-.78,0-1.07-.29-1.14-1.05-.12-1.34-.24-2.67-.4-4a.74.74,0,0,0-.4-.44c-1.61-.7-3.23-1.39-4.86-2.05a.83.83,0,0,0-.7.11c-1,.8-2,1.65-3,2.47-.66.53-1,.51-1.6-.08Q7.4,43,5.08,40.64c-.59-.59-.6-1-.07-1.6l2.64-3.19C6.91,34,6.22,32.18,5.51,30.42A.69.69,0,0,0,5,30.05c-1.33-.15-2.67-.27-4-.4-.75-.07-1-.35-1-1.09V21.79c0-.74.28-1,1-1.09,1.33-.12,2.67-.24,4-.4a.8.8,0,0,0,.5-.42C6.23,18.15,6.91,16.41,7.65,14.51Zm40.89,8c-.26,0-.51-.08-.76-.1-1.16-.12-2.32-.25-3.49-.34a1,1,0,0,1-1-.91,17.77,17.77,0,0,0-2.46-5.85,1,1,0,0,1,.09-1.38c.22-.23.41-.49.61-.74l2.12-2.57L39.71,6.81c-1,.83-2.08,1.69-3.13,2.59A1.13,1.13,0,0,1,35,9.5a16.17,16.17,0,0,0-4.87-2.18c-1.92-.51-1.69-.33-1.91-2.4-.11-1-.2-2.06-.3-3.09H22.46c-.12,1.35-.25,2.67-.37,4C22,6.7,21.85,6.92,21,7.12a18.14,18.14,0,0,0-5.56,2.33c-.75.48-1,.46-1.64-.1l-3-2.51L6.88,10.73c.83,1,1.72,2.1,2.62,3.17a1,1,0,0,1,.16,1.23,19.32,19.32,0,0,0-2.6,6.13.89.89,0,0,1-.84.74l-2.29.23-2.1.22v5.46l.73.08c1.1.11,2.2.19,3.3.32s1.06.22,1.3,1.17A18,18,0,0,0,9.3,34.65c.72,1.18.72,1.18-.17,2.26s-1.57,1.89-2.3,2.78l3.87,3.87,3-2.49c.79-.65,1-.67,1.8-.14a18.39,18.39,0,0,0,5.32,2.26c1.09.28,1.2.43,1.29,1.56s.24,2.52.36,3.77h5.47c.15-1.38.32-2.71.4-4.05a1.19,1.19,0,0,1,1.09-1.24A17.25,17.25,0,0,0,35,40.9c.75-.47.95-.46,1.64.11l3,2.49,3.89-3.88c-.81-1-1.67-2-2.56-3.07a1.12,1.12,0,0,1-.11-1.5,18.12,18.12,0,0,0,2.42-5.73,1.09,1.09,0,0,1,1.12-1c.27,0,.55,0,.82-.08l3.31-.33Z"/><path class="cls-1" d="M10.43,25.15A14.78,14.78,0,1,1,25.25,40,14.81,14.81,0,0,1,10.43,25.15Zm14.81,13a13,13,0,1,0-13-12.89A13,13,0,0,0,25.24,38.13Z"/><path class="cls-1" d="M23.37,27.68l6.57-6.41a2.52,2.52,0,0,1,.52-.46.77.77,0,0,1,1.13.19,1.94,1.94,0,0,1,0,1.1c0,.15-.25.28-.38.42l-6.81,6.64c-.72.71-1.1.71-1.83,0L18.87,25.5a.9.9,0,0,1-.16-1.26A.85.85,0,0,1,19.8,24a1.87,1.87,0,0,1,.54.44Z"/></g></g></svg>