<svg xmlns="http://www.w3.org/2000/svg" viewBox="0 0 52.84 53.67"><defs><style>.cls-1{fill:#fff;}</style></defs><g id="Layer_2" data-name="Layer 2"><g id="gia_tri" data-name="gia tri"><path class="cls-1" d="M22.86,0a5.07,5.07,0,0,1,2.53,1.67c1.07,1.2,2.12,2.41,3.19,3.6a.92.92,0,0,0,.45.29,25.94,25.94,0,0,1,5.88,2,.82.82,0,0,0,.65,0c1.21-.77,2.38-1.59,3.59-2.35A3.82,3.82,0,0,1,45,7.55a7.18,7.18,0,0,1-.1,2.11,2.3,2.3,0,0,1-.15.49,4,4,0,0,1,2.56,5.61,3.91,3.91,0,0,1,2.6,2.14,4,4,0,0,1,0,3.41l.44.18a3.69,3.69,0,0,1,2.49,3,3.65,3.65,0,0,1-1.51,3.68c-.78.58-1.62,1.08-2.42,1.65a1,1,0,0,0-.32.58c-.14,1.07-.22,2.15-.35,3.22a.86.86,0,0,1-1,.85c-.51-.08-.76-.48-.68-1.1s.18-1.37.29-2.2l-.62.4L38,37.05a5.54,5.54,0,0,1-4.06,1,4.68,4.68,0,0,0-3.74,1.32,2.15,2.15,0,0,1,.17,2.32,3.66,3.66,0,0,1-1.11,1.14c-3.83,2.56-7.68,5.09-11.52,7.64l-.54.37c.65.19,1.2.38,1.75.51a22.58,22.58,0,0,0,26.49-14l.09-.24a.85.85,0,0,1,1.1-.54.83.83,0,0,1,.46,1.16A23.06,23.06,0,0,1,43.71,44,24,24,0,0,1,28.47,53.3a24.28,24.28,0,0,1-10-47.49l.81-.19a11.59,11.59,0,0,1-.49-2A3.38,3.38,0,0,1,21.32.11L21.6,0Zm6.33,37.88a.58.58,0,0,0,.16,0,5.8,5.8,0,0,0,.52-.34,5.85,5.85,0,0,1,4.45-1.12,3.5,3.5,0,0,0,2.49-.58Q43.49,31.39,50.16,27a2.16,2.16,0,0,0,.64-3,2.18,2.18,0,0,0-3-.62c-.54.33-1,.69-1.58,1s-1,.29-1.32-.16-.13-.89.4-1.24c.76-.52,1.54-1,2.3-1.54a2.19,2.19,0,1,0-2.42-3.64c-.52.33-1,.68-1.53,1a.88.88,0,0,1-1.33-.16c-.27-.43-.14-.88.39-1.24l2.22-1.47a2.19,2.19,0,1,0-2.4-3.66c-.54.35-1.07.72-1.62,1a.8.8,0,0,1-1.27-.63,1.27,1.27,0,0,1,.49-.84c.75-.56,1.57-1,2.34-1.58a2.19,2.19,0,1,0-2.51-3.59l-8.6,5.69c-.72.48-1.23.31-1.54-.5s-.68-1.83-1-2.74a18.53,18.53,0,0,0-5.41-7,1.61,1.61,0,0,0-1.95-.17,1.59,1.59,0,0,0-.92,1.69A3.93,3.93,0,0,0,21,4.87a11.68,11.68,0,0,1,1.47,8.61c-.74,3.4-1.56,6.79-2.32,10.18a1,1,0,0,0,.13.71c1.06,1.64,2.15,3.27,3.23,4.9ZM10.29,27.5c-2.74,1.8-5.42,3.57-8.08,5.35a.54.54,0,0,0-.16.47A22.48,22.48,0,0,0,14.78,49.88a.77.77,0,0,0,.89-.07c2.08-1.4,4.18-2.78,6.28-4.16l.32-.26c-.11-.18-.2-.33-.3-.47L13.32,32a1.67,1.67,0,0,1-.25-.4.81.81,0,0,1,.28-1.06.79.79,0,0,1,1.09.14,2,2,0,0,1,.27.38L23.37,44l.35.49c1.6-1.06,3.17-2.09,4.73-3.14.57-.37.61-.59.24-1.16l-11-16.57c-.36-.55-.61-.6-1.17-.23l-4.49,3a3.38,3.38,0,0,0-.33.26c.27.4.53.78.77,1.16.4.6.38,1.06-.07,1.37s-.93.16-1.34-.46C10.83,28.3,10.57,27.93,10.29,27.5Zm8.44-5.39c0-.1,0-.16.06-.23.63-2.73,1.25-5.46,1.9-8.18a10.85,10.85,0,0,0-.26-6.08c-.13-.4-.33-.45-.69-.38a22.68,22.68,0,0,0-18,21.24c-.05.85,0,1.7,0,2.66l.58-.34c4.35-2.88,8.7-5.74,13-8.65A2.57,2.57,0,0,1,18.73,22.11ZM33.66,8.76,29.89,7.44l1.21,3Z"/></g></g></svg>