<svg xmlns="http://www.w3.org/2000/svg" viewBox="0 0 51.39 51.39"><defs><style>.cls-1{fill:#fff;}</style></defs><g id="Layer_2" data-name="Layer 2"><g id="gia_tri" data-name="gia tri"><path class="cls-1" d="M23.89,51.39,21.08,51a3.12,3.12,0,0,1-.44-.09,1,1,0,0,1-.8-1.15,1,1,0,0,1,1.23-.83,38.58,38.58,0,0,0,4.13.44,23.23,23.23,0,0,0,19.05-9,22.45,22.45,0,0,0,5-12.3,23.36,23.36,0,0,0-4.79-16.78.58.58,0,0,0-.11-.1,4.27,4.27,0,0,1-3.74.1,4.14,4.14,0,0,1-2-1.93A4.23,4.23,0,1,1,46,9.69c.85,1.4,1.76,2.73,2.51,4.13a24.63,24.63,0,0,1,2.84,9.74,3.29,3.29,0,0,0,.09.43v3.52a3,3,0,0,0-.1.43A24.59,24.59,0,0,1,47,40.07,25.3,25.3,0,0,1,30.17,51c-.88.16-1.77.26-2.66.39ZM42.28,9.65a2.21,2.21,0,1,0-2.13-2.28A2.24,2.24,0,0,0,42.28,9.65Z"/><path class="cls-1" d="M39.55,33.72c.35.34.76.72,1.16,1.12a1,1,0,0,1,0,1.66c-1.42,1.42-2.83,2.84-4.26,4.25a1,1,0,0,1-1.58,0c-.43-.42-.83-.87-1.15-1.21-1.3.5-2.48,1-3.65,1.42a.55.55,0,0,0-.25.41c0,.51,0,1,0,1.55a1,1,0,0,1-1.09,1H22.63a1,1,0,0,1-1.07-1.06c0-.52,0-1,0-1.55a.55.55,0,0,0-.31-.4C20.1,40.48,19,40,17.66,39.53c-.3.32-.69.76-1.1,1.17a1,1,0,0,1-1.69,0l-4.18-4.18a1,1,0,0,1,0-1.69c.33-.34.68-.65,1-1a.54.54,0,0,0,.08-.49c-.42-1.07-.86-2.13-1.31-3.18a.62.62,0,0,0-.41-.3c-.52,0-1,0-1.56,0a1,1,0,0,1-1-1.08V22.63a1,1,0,0,1,1-1.08c.5,0,1,0,1.51,0a.42.42,0,0,0,.47-.32c.41-1.06.84-2.1,1.3-3.14a.41.41,0,0,0-.09-.56c-.37-.34-.72-.7-1.07-1.06a1,1,0,0,1,0-1.51C12.06,13.5,13.51,12,15,10.6a1,1,0,0,1,1.5,0c.37.35.73.7,1.07,1.07.18.2.32.18.56.08,1-.45,2.09-.87,3.13-1.32a.57.57,0,0,0,.3-.41c0-.51,0-1,0-1.55a1,1,0,0,1,1.09-1h6.07a1,1,0,0,1,1.12,1.11c0,.48,0,1,0,1.45a.41.41,0,0,0,.33.46c1.06.42,2.1.85,3.14,1.31a.42.42,0,0,0,.56-.1c.33-.36.67-.7,1-1a1,1,0,0,1,1.55,0c1.45,1.43,2.89,2.88,4.33,4.33a1,1,0,0,1,0,1.54c-.33.35-.67.7-1,1a.44.44,0,0,0-.1.6c.45,1,.89,2.05,1.28,3.09a.45.45,0,0,0,.5.35c.47,0,.94,0,1.41,0,.78,0,1.13.37,1.13,1.15,0,2,0,4,0,6,0,.81-.35,1.16-1.16,1.17-.49,0-1,0-1.45,0a.53.53,0,0,0-.39.27C40.49,31.27,40.05,32.44,39.55,33.72ZM9.47,27.81h1.47c.76,0,1.07.22,1.25.95A14.37,14.37,0,0,0,14,33.09a1,1,0,0,1-.17,1.48c-.36.36-.77.68-1.12,1l3.09,3.12c.33-.36.66-.73,1-1.09a1,1,0,0,1,1.51-.19,14,14,0,0,0,4.28,1.77,1.09,1.09,0,0,1,1,1.28c0,.5,0,1,0,1.46h4.24v-1.5a1,1,0,0,1,.94-1.21,14.41,14.41,0,0,0,4.36-1.82,1,1,0,0,1,1.44.17c.37.36.72.75,1,1.08l3.07-3c-.35-.33-.73-.68-1.09-1.05a1,1,0,0,1-.18-1.4,14.76,14.76,0,0,0,1.85-4.41,1,1,0,0,1,1.17-.91h1.52V23.58H40.44a1.07,1.07,0,0,1-1.22-.94,14.57,14.57,0,0,0-1.82-4.37,1,1,0,0,1,.17-1.44c.36-.36.75-.7,1.07-1l-3-3.1c-.33.35-.66.73-1,1.08a1,1,0,0,1-1.48.16,14.54,14.54,0,0,0-4.37-1.81,1,1,0,0,1-.9-1.14c0-.52,0-1,0-1.55H23.58c0,.51,0,1,0,1.48a1.06,1.06,0,0,1-1,1.23A14.65,14.65,0,0,0,18.29,14a1,1,0,0,1-1.45-.16c-.36-.37-.69-.76-1-1.1l-3.06,3.11c.14.12.33.28.51.45s.36.35.53.54A1,1,0,0,1,14,18.26a14.46,14.46,0,0,0-1.82,4.37,1.06,1.06,0,0,1-1.2.95H9.47Z"/><path class="cls-1" d="M7,40.21c2.49-.91,4.52-.32,5.66,1.61a4.22,4.22,0,1,1-7.2-.15c-.71-1.1-1.46-2.16-2.11-3.28A25.31,25.31,0,0,1,0,24.21,25.69,25.69,0,0,1,30.46.44a2.16,2.16,0,0,1,.44.1,1,1,0,0,1,.7,1.18,1,1,0,0,1-1.22.78c-.64-.1-1.28-.21-1.93-.3A22,22,0,0,0,17.9,3.37c-8.07,3-13.27,8.71-15.25,17.1A23,23,0,0,0,6.72,39.83C6.81,40,6.92,40.09,7,40.21Zm2,1.54A2.21,2.21,0,1,0,11.25,44,2.24,2.24,0,0,0,9.05,41.75Z"/><path class="cls-1" d="M35,1.81a1,1,0,0,1,1,1,1,1,0,0,1-1,1,1,1,0,0,1-1-1A1,1,0,0,1,35,1.81Z"/><path class="cls-1" d="M16.5,49.61a1,1,0,0,1-1-1,1.05,1.05,0,0,1,1-1,1,1,0,0,1,1,1A1,1,0,0,1,16.5,49.61Z"/><path class="cls-1" d="M34,25.7a8.31,8.31,0,1,1-8.3-8.31A8.36,8.36,0,0,1,34,25.7Zm-2,0A6.27,6.27,0,1,0,25.7,32,6.26,6.26,0,0,0,32,25.69Z"/></g></g></svg>