<svg xmlns="http://www.w3.org/2000/svg" viewBox="0 0 57.1 52.62"><defs><style>.cls-1{fill:#fff;}</style></defs><g id="Layer_2" data-name="Layer 2"><g id="gia_tri" data-name="gia tri"><path class="cls-1" d="M7.65,50.71H1.37C.25,50.71,0,50.46,0,49.35V36.67c0-1,.28-1.27,1.28-1.27H7.65c0-.35,0-.65,0-.94a.89.89,0,0,1,.92-1q3.86,0,7.71,0a.89.89,0,0,1,.92,1c0,.51,0,1,0,1.61l3.47-.87A9.1,9.1,0,0,1,25,34.72c1.51.34,3,.77,4.5,1.17l10,2.67A4.14,4.14,0,0,1,42,40.22l1.6-.91c2.56-1.47,5.1-3,7.66-4.41a3.79,3.79,0,0,1,5.79,3A3.71,3.71,0,0,1,55,41.62c-3.31,1.9-6.61,3.82-9.92,5.73l-5.74,3.31a7.16,7.16,0,0,1-3.75,1c-4.51,0-9,0-13.51,0a8.31,8.31,0,0,1-4.24-1c-.17-.09-.35-.16-.61-.28,0,.46,0,.85,0,1.24a.92.92,0,0,1-1,1q-3.77,0-7.53,0a.92.92,0,0,1-1-1C7.65,51.35,7.65,51.07,7.65,50.71Zm9.57-12.64v9.8c0,.14.07.35.17.4,1.41.68,2.73,1.52,4.41,1.5,4.56-.05,9.12,0,13.68,0A5.55,5.55,0,0,0,38.33,49L54,39.93a1.91,1.91,0,0,0,.88-2.68,2,2,0,0,0-2.8-.6l-9,5.19a.76.76,0,0,0-.44.74,3.68,3.68,0,0,1-4.11,3.6,31.12,31.12,0,0,1-3.52-.86c-2.81-.74-5.61-1.5-8.41-2.25-.66-.18-.95-.61-.84-1.16s.65-.88,1.41-.68c3.68,1,7.36,2,11,2.94a2.64,2.64,0,0,0,1.28,0,1.76,1.76,0,0,0,1.26-1.87,1.83,1.83,0,0,0-1.46-1.75c-4.73-1.28-9.47-2.56-14.22-3.8A4.9,4.9,0,0,0,23,36.66C21.08,37.06,19.18,37.59,17.22,38.07ZM9.59,50.67h5.69V35.43H9.59Zm-2-1.9V37.36H1.94V48.77Z"/><path class="cls-1" d="M39.19,33.49H36.5c-.76,0-1.09-.33-1.1-1.09,0-1,0-2,0-3.05a.66.66,0,0,0-.23-.46c-.07-.05-.32.08-.43.19-.71.69-1.41,1.41-2.12,2.11a1,1,0,0,1-1.65,0c-1.26-1.25-2.52-2.5-3.76-3.76a1,1,0,0,1,0-1.69c.67-.68,1.36-1.35,2-2a1.72,1.72,0,0,0,.24-.53A1.49,1.49,0,0,0,29,23c-1,0-2,0-3,0-.76,0-1.1-.34-1.1-1.09,0-1.83,0-3.66,0-5.5A.94.94,0,0,1,26,15.31c1,0,2,0,3.05,0a1.45,1.45,0,0,0,.49-.2,1.76,1.76,0,0,0-.22-.48c-.67-.69-1.35-1.36-2-2s-.65-1.1,0-1.74l3.73-3.72a1,1,0,0,1,1.7,0c.71.7,1.4,1.42,2.12,2.11a.52.52,0,0,0,.44.15A.55.55,0,0,0,35.39,9c0-1,0-2,0-3,0-.79.34-1.12,1.13-1.12h5.39c.79,0,1.12.33,1.13,1.12,0,1,0,2,0,3a.53.53,0,0,0,.2.42.52.52,0,0,0,.44-.14l2.12-2.11a1,1,0,0,1,1.69,0c1.26,1.25,2.52,2.5,3.76,3.76a1,1,0,0,1,0,1.65c-.65.67-1.33,1.32-2,2a3.12,3.12,0,0,0-.32.57,2.51,2.51,0,0,0,.68.2c.95,0,1.91,0,2.87,0a.94.94,0,0,1,1.07,1.06c0,1.85,0,3.7,0,5.56a.93.93,0,0,1-1,1c-1,0-2,0-3.05,0a1.7,1.7,0,0,0-.51.17,1.77,1.77,0,0,0,.24.54c.66.69,1.35,1.35,2,2s.62,1.1,0,1.7q-1.87,1.89-3.77,3.76a1,1,0,0,1-1.65,0c-.71-.7-1.41-1.41-2.13-2.11-.1-.1-.36-.22-.42-.17a.63.63,0,0,0-.23.46c0,1,0,1.95,0,2.93s-.31,1.2-1.23,1.21Zm10.14-7c-.49-.45-1-.93-1.53-1.43-1.19-1.19-1.19-1.19-.57-2.73,0-.07.05-.15.08-.22.35-.94.46-1,1.49-1h2.84V17.22H49.05c-1.33,0-1.33,0-1.82-1.22-.07-.18-.16-.36-.24-.54-.39-.82-.35-1.05.29-1.69l2-2L46.55,9.07c-.68.7-1.41,1.43-2.12,2.18a1.05,1.05,0,0,1-1.31.23c-.41-.19-.84-.36-1.26-.52a1,1,0,0,1-.72-1.05c0-.34,0-.68,0-1V6.73H37.37a.47.47,0,0,0,0,.14c0,.86,0,1.71,0,2.57,0,1.19,0,1.25-1.12,1.66-.24.09-.48.19-.71.3a1.07,1.07,0,0,1-1.54-.25c-.71-.7-1.4-1.41-2-2l-2.71,2.7L31,13.57c.9.9.9.93.38,2.12a5.32,5.32,0,0,0-.26.66,1.1,1.1,0,0,1-1.23.88c-1,0-2,0-3,0v3.83c1.07,0,2.11,0,3.14,0a1,1,0,0,1,1.09.75c.14.37.29.74.45,1.1a1.08,1.08,0,0,1-.28,1.54l-2.08,2.08,2.72,2.69,1.8-1.83c.89-.89.94-.9,2.06-.39.22.1.44.19.67.27.78.29.91.47.91,1.32v3h3.83c0-1.06,0-2.08,0-3.09A1.08,1.08,0,0,1,42,27.28a9.31,9.31,0,0,0,1-.4c.76-.35,1-.32,1.59.26l2,2.06Z"/><path class="cls-1" d="M16.45,2.57a13.67,13.67,0,0,1,.94-1.06,1,1,0,0,1,1.48,0q1.3,1.28,2.58,2.58a1,1,0,0,1,0,1.53c-.16.17-.33.35-.51.51s-.34.26-.52.4l.08.18h1.39c.75,0,1.08.35,1.09,1.11v3.52c0,.76-.34,1.09-1.09,1.11H20.56s0,0-.16.12c.32.3.65.57.94.88a1,1,0,0,1,0,1.69c-.8.81-1.6,1.62-2.41,2.41a1,1,0,0,1-1.66,0c-.3-.31-.57-.65-.85-1l-.19.09c0,.47,0,.93,0,1.4a.94.94,0,0,1-1.06,1.07c-1.21,0-2.43,0-3.64,0a.93.93,0,0,1-1-1c0-.46,0-.91,0-1.37l-.15-.12c-.3.33-.6.69-.94,1a1,1,0,0,1-1.53,0c-.85-.83-1.7-1.68-2.53-2.53a1,1,0,0,1,0-1.53c.32-.34.68-.64,1-1l-.08-.15H4.88a.94.94,0,0,1-1-1c0-1.23,0-2.47,0-3.71a.93.93,0,0,1,1-1H6.41l-1-1c-.63-.65-.64-1.12,0-1.75C6.22,3.18,7,2.39,7.81,1.61a1,1,0,0,1,1.7,0c.29.29.56.61.84.92l.17-.06c0-.45,0-.91,0-1.37,0-.75.33-1.09,1.09-1.09H15.2a.94.94,0,0,1,1.06,1.07c0,.45,0,.91,0,1.36Zm3,11.71c-.53-.52-1-1-1.5-1.47s-.39-1-.15-1.52A1.1,1.1,0,0,1,19,10.52c.69,0,1.38,0,2.06,0V8.61c-.7,0-1.37,0-2.05,0a1.09,1.09,0,0,1-1.14-.76A1.19,1.19,0,0,1,18,6.29c.5-.45,1-.92,1.43-1.33L18.05,3.5c-.47.5-.94,1-1.4,1.48a1.17,1.17,0,0,1-1.52.16A1.08,1.08,0,0,1,14.35,4c0-.69,0-1.38,0-2.06H12.43c0,.7,0,1.36,0,2a1.14,1.14,0,0,1-.8,1.18A1.17,1.17,0,0,1,10.13,5c-.46-.5-.93-1-1.38-1.45L7.3,4.88c.52.51,1,1,1.53,1.47s.36,1,.12,1.52a1.06,1.06,0,0,1-1.09.74c-.69,0-1.39,0-2.08,0v1.92c.69,0,1.35,0,2,0a1.1,1.1,0,0,1,1.16.73c.27.6.38,1.13-.19,1.62L7.28,14.19l1.43,1.48c.5-.52,1-1,1.45-1.53s1-.38,1.52-.13a1.07,1.07,0,0,1,.76,1.08c0,.69,0,1.38,0,2.1h1.92c0-.69,0-1.34,0-2a1.12,1.12,0,0,1,.76-1.2c.59-.26,1.1-.34,1.57.2s.9,1,1.36,1.5Z"/><path class="cls-1" d="M39.23,13.4a5.74,5.74,0,1,1-5.74,5.72A5.71,5.71,0,0,1,39.23,13.4Zm0,9.56A3.83,3.83,0,1,0,35.4,19.1,3.87,3.87,0,0,0,39.22,23Z"/><path class="cls-1" d="M13.41,5.74A3.83,3.83,0,1,1,9.57,9.55,3.81,3.81,0,0,1,13.41,5.74Zm0,5.74a1.91,1.91,0,1,0-1.93-1.9A2,2,0,0,0,13.41,11.48Z"/></g></g></svg>