<svg xmlns="http://www.w3.org/2000/svg" viewBox="0 0 66.67 70.73"><defs><style>.cls-1{fill:#fff;}</style></defs><g id="Layer_2" data-name="Layer 2"><g id="Layer_5" data-name="Layer 5"><path class="cls-1" d="M47.7,0c.41.37.84.71,1.22,1.1q8.44,8.75,16.87,17.5a2.85,2.85,0,0,1,.88,2.14q0,22,0,44.06a5.4,5.4,0,0,1-3.07,5.34,5.58,5.58,0,0,1-2.38.56q-20.41,0-40.82,0A5.4,5.4,0,0,1,15,65.19c0-3.78,0-7.55,0-11.33V53H4.22A4,4,0,0,1,0,49Q0,38.77,0,28.52a4,4,0,0,1,4.24-4.05c3.29,0,6.58,0,9.87,0H15v-.88c0-5.87.06-11.74,0-17.61A5.66,5.66,0,0,1,19.35.11c.06,0,.11-.07.17-.11Zm-30,53v.85c0,3.63.07,7.27,0,10.91A3,3,0,0,0,20.92,68q19.89-.08,39.79,0a3,3,0,0,0,3.22-3.22c0-14.07,0-28.14,0-42.2v-.8H47c-1.67,0-2.09-.41-2.09-2.06v-17H20.79a2.75,2.75,0,0,0-3.08,3.1V24.46H40.44A4.18,4.18,0,0,1,44.92,29V48.56A4.14,4.14,0,0,1,40.45,53H17.71Zm4.71-2.74H40.37c1.34,0,1.8-.47,1.8-1.83q0-9.7,0-19.4c0-1.38-.48-1.86-1.87-1.86H4.61c-1.42,0-1.85.43-1.85,1.85v19.4c0,1.45.4,1.84,1.85,1.84ZM47.68,19H62.34L47.68,3.76Z"/><path class="cls-1" d="M17.94,39.06c0-2.37.71-4.45,3-5.48,3.36-1.53,7.88-.18,8.3,4.56a7.06,7.06,0,0,1-.89,4.58,5.27,5.27,0,0,1-4.91,2.35C20.09,45,17.93,42.75,17.94,39.06Zm2.42-.2a16.37,16.37,0,0,0,.25,1.78,3.08,3.08,0,0,0,6,.08,6.21,6.21,0,0,0,0-3.34,2.89,2.89,0,0,0-3.07-2.32,2.91,2.91,0,0,0-3,2.38C20.5,37.84,20.46,38.25,20.36,38.86Z"/><path class="cls-1" d="M6.66,44.8V33.09c2.11.09,4.18.1,6.23.3a3.46,3.46,0,0,1,2.71,2,8.13,8.13,0,0,1,.29,6.62,3.88,3.88,0,0,1-3.5,2.72C10.5,44.89,8.59,44.8,6.66,44.8ZM9,42.85c.91,0,1.78,0,2.64,0a2,2,0,0,0,2-1.64,8.25,8.25,0,0,0,0-4.1,2.16,2.16,0,0,0-2-1.81c-.88-.09-1.78,0-2.71,0Z"/><path class="cls-1" d="M40.83,36.44,38.58,37c-.89-1.76-2.11-2.34-3.6-1.73a2.82,2.82,0,0,0-1.75,2.67,12.25,12.25,0,0,0,.24,3.2,2.45,2.45,0,0,0,2.52,2,2.5,2.5,0,0,0,2.4-1.84c.07-.19.14-.38.22-.62l1.13.33,1.09.37a4.61,4.61,0,0,1-5,3.79,5.19,5.19,0,0,1-5.09-4.78A6.93,6.93,0,0,1,32,34.88a5.18,5.18,0,0,1,5.08-1.81,4.19,4.19,0,0,1,3.65,3C40.76,36.12,40.78,36.24,40.83,36.44Z"/></g></g></svg>