<svg xmlns="http://www.w3.org/2000/svg" viewBox="0 0 61.86 68.87"><defs><style>.cls-1{fill:#fff;}</style></defs><g id="Layer_2" data-name="Layer 2"><g id="Layer_5" data-name="Layer 5"><path class="cls-1" d="M32.55,0c1.31.26,2.65.44,3.93.81A19.66,19.66,0,0,1,47.84,9.19,20.06,20.06,0,0,1,51.11,20.7c0,2.58,0,5.16,0,7.74a4,4,0,0,1-4.26,4.24H44.66c-.16.87-.28,1.71-.48,2.53a14.3,14.3,0,0,1-3.46,6.58.64.64,0,0,0-.13.87c.62,1.19,1.18,2.41,1.82,3.59a1.63,1.63,0,0,0,.8.69c1.94.68,3.9,1.29,5.84,2a18.69,18.69,0,0,1,10.77,9.83,19.19,19.19,0,0,1,2,8.48c0,1.13-.49,1.64-1.63,1.64H1.6A1.39,1.39,0,0,1,0,67.26c.07-7.8,5.14-16,13.34-18.54q2.69-.84,5.34-1.79a1.49,1.49,0,0,0,.76-.64c.63-1.18,1.2-2.4,1.82-3.59a.71.71,0,0,0-.14-.93,32.59,32.59,0,0,1-2.1-3,1.11,1.11,0,0,0-1.17-.7,3.81,3.81,0,0,1-4-2.41A8.8,8.8,0,0,1,13.46,33a.79.79,0,0,0-.46-.76,3.83,3.83,0,0,1-2.24-3.62A96.2,96.2,0,0,1,11,17.88c.95-8,5.34-13.51,12.78-16.51A37,37,0,0,1,28.8.12L29.32,0ZM42.92,22.91l-.3-.06c-1.92-.41-3.88-.69-5.76-1.25a22.55,22.55,0,0,1-8.7-5,1.14,1.14,0,0,0-1-.33A9.43,9.43,0,0,0,22.65,18a18,18,0,0,0-3.59,4.14,1.05,1.05,0,0,0-.11.64c.13,1.74.21,3.49.43,5.22.28,2.28.68,4.55,1,6.83.06.42.24.55.66.54,1,0,1.93,0,2.89,0a.65.65,0,0,0,.69-.46,3.91,3.91,0,0,1,3.62-2.24c.92,0,1.84,0,2.76,0a4,4,0,0,1,0,8.06c-.83,0-1.66,0-2.49,0a4,4,0,0,1-3.91-2.34c-.07-.14-.22-.33-.34-.34-.81,0-1.61,0-2.48,0a10.86,10.86,0,0,0,4.8,4.44C33,45.34,39.69,41.6,41.38,35a67.28,67.28,0,0,0,1.24-7.88C42.8,25.75,42.83,24.33,42.92,22.91ZM2.79,66.13H28.47c-1.75-2.71-3.58-5.27-5.12-8s-2.81-5.62-4.22-8.48c-1.46.49-3,1.05-4.64,1.55a16.29,16.29,0,0,0-10.57,10A14.89,14.89,0,0,0,2.79,66.13Zm30.52,0H59.05c0-.17,0-.3,0-.43a2.42,2.42,0,0,0,0-.47c-1.24-6.93-4.9-11.84-11.76-14.09l-4.76-1.57C40.5,55.68,36.93,60.84,33.31,66.15ZM18.94,17.71a2.73,2.73,0,0,0,.28-.22,12.2,12.2,0,0,1,7.64-4,3,3,0,0,1,2.84.74,19.63,19.63,0,0,0,6.55,4.25A23.29,23.29,0,0,0,43,20.11a11.06,11.06,0,0,0-6.8-11.24,16.18,16.18,0,0,0-7.62-.69A10.5,10.5,0,0,0,20.64,13,10.28,10.28,0,0,0,18.94,17.71ZM48.27,18.8a17.38,17.38,0,0,0-34.66,0h2.48c.07-.66.1-1.22.19-1.77A13.44,13.44,0,0,1,24.85,6.3c3-1.22,6.06-1.09,9.14-.76a13.45,13.45,0,0,1,11.18,9.64c.31,1.18.46,2.4.69,3.62ZM26,57.45l4.93,7.42,4.85-7.33-5.08-5.07ZM38.4,44.34l-5.63,6c1.53,1.54,3,3,4.61,4.61.92-2.25,1.85-4.49,2.76-6.74a.72.72,0,0,0-.08-.49C39.53,46.59,39,45.52,38.4,44.34Zm-9.64,6.25L23.15,45a12.93,12.93,0,0,1-.78,1.52,2.78,2.78,0,0,0-.19,3C23,51.3,23.76,53.11,24.59,55ZM13.45,21.54c0,2.39,0,4.72,0,7a1.25,1.25,0,0,0,1.15,1.35,17.46,17.46,0,0,0,2.17,0l-.68-8.41Zm32.31,0L45.09,30c.56,0,1.11,0,1.67,0a1.47,1.47,0,0,0,1.66-1.65c0-1,0-2.06,0-3.09V21.55ZM29.53,38.11A14.33,14.33,0,0,0,31.2,38a1.24,1.24,0,0,0,1.05-1.28c-.06-.63-.36-1.18-1-1.23a23.94,23.94,0,0,0-3.28,0,1.21,1.21,0,0,0-1,1.23,1.29,1.29,0,0,0,1,1.26A15.52,15.52,0,0,0,29.53,38.11Zm-1.08,8,2.38,2.32L33,46.07ZM17.68,35.34l-.46-2.62h-1C16,34.55,16.34,35.24,17.68,35.34Z"/><path class="cls-1" d="M50.64,55.82a5.07,5.07,0,0,1,.85.47,13.31,13.31,0,0,1,3.44,4.16,1.41,1.41,0,0,1-.39,2c-.71.41-1.45.17-1.95-.71a12,12,0,0,0-2.85-3.44,1.36,1.36,0,0,1-.55-1.6A1.46,1.46,0,0,1,50.64,55.82Z"/><path class="cls-1" d="M45.78,53.27a1.34,1.34,0,1,1-1.39,1.26A1.35,1.35,0,0,1,45.78,53.27Z"/></g></g></svg>