<svg xmlns="http://www.w3.org/2000/svg" viewBox="0 0 66.67 70.73"><defs><style>.cls-1{fill:#fff;}</style></defs><g id="Layer_2" data-name="Layer 2"><g id="Layer_5" data-name="Layer 5"><path class="cls-1" d="M47.7,0c.41.37.84.71,1.22,1.1q8.44,8.75,16.87,17.5a2.85,2.85,0,0,1,.88,2.14q0,22,0,44.06a5.4,5.4,0,0,1-3.07,5.34,5.58,5.58,0,0,1-2.38.56q-20.41,0-40.82,0A5.4,5.4,0,0,1,15,65.19c0-3.78,0-7.55,0-11.33V53H4.22A4,4,0,0,1,0,49Q0,38.77,0,28.52a4,4,0,0,1,4.24-4.05c3.29,0,6.58,0,9.87,0H15v-.88c0-5.87.06-11.74,0-17.61A5.66,5.66,0,0,1,19.35.11c.06,0,.11-.07.17-.11Zm-30,53v.84c0,3.63.07,7.27,0,10.91A3,3,0,0,0,20.91,68q19.89-.08,39.79,0a3,3,0,0,0,3.23-3.21c0-14.07,0-28.14,0-42.2,0-.25,0-.49,0-.81h-17c-1.6,0-2-.43-2-2.05v-17H20.8a2.75,2.75,0,0,0-3.09,3.09V24.46H40.36A4.19,4.19,0,0,1,44.92,29c0,6.49,0,13,0,19.48a4.33,4.33,0,0,1-4.54,4.58c-7.25-.08-14.5,0-21.76,0Zm4.71-2.74H40.3c1.41,0,1.87-.45,1.87-1.84q0-9.7,0-19.4c0-1.38-.48-1.85-1.88-1.85H4.6c-1.41,0-1.84.43-1.84,1.86v19.4c0,1.44.4,1.83,1.85,1.83ZM47.67,3.75V19H62.34Z"/><path class="cls-1" d="M18.88,44.8V33.08c2.15.1,4.26.12,6.35.34a3.37,3.37,0,0,1,2.62,2,8.06,8.06,0,0,1,.27,6.61,3.85,3.85,0,0,1-3.5,2.7C22.73,44.9,20.82,44.8,18.88,44.8Zm2.44-9.55v7.6c.91,0,1.75,0,2.6,0A2,2,0,0,0,26,41a15.74,15.74,0,0,0,.13-3.29,2.35,2.35,0,0,0-2.22-2.46A24.56,24.56,0,0,0,21.32,35.25Z"/><path class="cls-1" d="M8,33.11c2.15.07,4.25.07,6.33.24a3.18,3.18,0,0,1,2.59,3.53c-.12,2.27-1.41,3.5-3.78,3.58-.89,0-1.79,0-2.77,0v4.4H8Zm2.39,5.41c1-.06,1.95-.06,2.89-.21a1.52,1.52,0,0,0,0-3c-.95-.14-1.93-.13-2.92-.18Z"/><path class="cls-1" d="M38.67,33.22v2H33.1v2.73h4.77v2H33.08v5H30.73V33.22Z"/></g></g></svg>