<svg xmlns="http://www.w3.org/2000/svg" viewBox="0 0 44.66 22.96"><defs><style>.cls-1{fill:#de6726;}</style></defs><g id="Layer_2" data-name="Layer 2"><g id="footer"><path class="cls-1" d="M44.66,20.22,33.3,10l.27-.19,10.85-6.7L44.66,3Z"/><path class="cls-1" d="M43.75,23h-31l.28-.31,12.15-11a.49.49,0,0,1,.74-.06c.48.34,1,.63,1.51.95a1.37,1.37,0,0,0,1.59,0c.53-.33,1.07-.64,1.59-1a.43.43,0,0,1,.63.07l7.68,7,4.59,4.15Z"/><path class="cls-1" d="M12.53.13A5.39,5.39,0,0,1,13.32,0H43.18a6.37,6.37,0,0,1,.91.14,3.2,3.2,0,0,1-.3.26q-7.6,4.7-15.22,9.39a.48.48,0,0,1-.59,0L12.68.36l-.14-.1Z"/><path class="cls-1" d="M11.9,2.93l11.35,7L11.9,20.21Z"/><path class="cls-1" d="M4.62,12.81H1.4a1.31,1.31,0,1,1,0-2.62H7.85a1.31,1.31,0,1,1,0,2.62Z"/><path class="cls-1" d="M5.94,5h2a1.31,1.31,0,1,1,0,2.61H4A1.31,1.31,0,1,1,4,5Z"/><path class="cls-1" d="M5.91,18c-.65,0-1.31,0-2,0a1.31,1.31,0,1,1,0-2.61h4a1.31,1.31,0,1,1,0,2.61Z"/></g></g></svg>