<svg xmlns="http://www.w3.org/2000/svg" viewBox="0 0 53.78 75.57"><defs><style>.cls-1{fill:#1e2654;}</style></defs><g id="Layer_2" data-name="Layer 2"><g id="Layer_6" data-name="Layer 6"><path class="cls-1" d="M27.63,0c2,1.21,4.1,2.4,6.13,3.64a4.46,4.46,0,0,0,2.14.65c2,.14,3.93.28,5.88.47a3.14,3.14,0,0,1,2.75,2.05c.81,2,1.61,3.9,2.45,5.83a3.25,3.25,0,0,0,.8,1.11c1.56,1.39,3.15,2.75,4.74,4.1a3.28,3.28,0,0,1,1.12,3.57q-.75,3.07-1.45,6.16a2.8,2.8,0,0,0,0,1.08c.47,2.08,1,4.16,1.47,6.23a3.21,3.21,0,0,1-1.09,3.45c-1.62,1.39-3.25,2.78-4.85,4.2a2.57,2.57,0,0,0-.68.92c-.84,1.94-1.65,3.88-2.45,5.84a3.35,3.35,0,0,1-3.18,2.21c-.78,0-1.56.13-2.43.2,0,1.2,0,2.37,0,3.54a1.47,1.47,0,0,1-1.61,1.59A1.4,1.4,0,0,1,36,55.38c0-1.11,0-2.21,0-3.54a8.37,8.37,0,0,0-1.78.52c-1.84,1-3.64,2.16-5.43,3.27a3.29,3.29,0,0,1-3.8,0c-1.73-1.08-3.47-2.15-5.24-3.16a12.33,12.33,0,0,0-1.93-.68V72.56c.41-.17.74-.3,1.06-.45,2.3-1,4.61-2.08,6.9-3.17A2.4,2.4,0,0,1,28,69c2.4,1.13,4.82,2.21,7.23,3.31l.7.3c0-.34,0-.59,0-.85,0-1,0-2.11,0-3.17a1.4,1.4,0,0,1,1.44-1.37A1.43,1.43,0,0,1,39,68.51a36.2,36.2,0,0,1,0,4.42,2.94,2.94,0,0,1-4.23,2.36c-2.44-1.08-4.86-2.22-7.31-3.3a1.38,1.38,0,0,0-1,0c-2.36,1-4.7,2.12-7,3.19s-4.56-.25-4.56-3V51.71c-.79-.07-1.54-.17-2.29-.19a3.39,3.39,0,0,1-3.34-2.3c-.78-1.93-1.6-3.85-2.43-5.76a2.7,2.7,0,0,0-.67-.93q-2.42-2.12-4.86-4.2A3.19,3.19,0,0,1,.12,34.89c.5-2.07,1-4.15,1.47-6.23a2.46,2.46,0,0,0,0-1.08c-.47-2.08-1-4.16-1.47-6.23A3.21,3.21,0,0,1,1.21,17.9q2.44-2.07,4.86-4.19a2.7,2.7,0,0,0,.67-.93c.84-1.94,1.65-3.88,2.45-5.84a3.4,3.4,0,0,1,3.25-2.22c2-.12,4-.3,6-.5a3.34,3.34,0,0,0,1.3-.44c1.67-1,3.32-2,5-3,.46-.28.94-.52,1.41-.77ZM26.9,3c-.17.1-.35.18-.51.28-1.81,1.1-3.6,2.22-5.43,3.28a4.54,4.54,0,0,1-1.69.62c-2.06.22-4.12.38-6.18.5a1.3,1.3,0,0,0-1.36.92c-.76,2-1.59,3.91-2.44,5.84a3.53,3.53,0,0,1-.9,1.23c-1.63,1.45-3.3,2.87-5,4.28a.83.83,0,0,0-.34,1c.55,2.19,1,4.39,1.54,6.59a2.84,2.84,0,0,1,0,1.23c-.49,2.22-1,4.45-1.56,6.66a.74.74,0,0,0,.3.87c1.67,1.42,3.34,2.83,5,4.29a4.29,4.29,0,0,1,1,1.41c.87,2,1.69,4,2.51,6a.88.88,0,0,0,.87.63c1.47.09,2.94.26,4.41.31a8.89,8.89,0,0,1,5.17,1.61c1.27.92,2.69,1.63,4,2.47a1,1,0,0,0,1.19,0c1.77-1.11,3.54-2.21,5.36-3.24a5.23,5.23,0,0,1,2-.64c2-.22,4.11-.36,6.17-.5A.94.94,0,0,0,42,47.9c.82-2,1.65-4,2.53-6a3.63,3.63,0,0,1,.89-1.23c1.65-1.47,3.34-2.91,5-4.34a.78.78,0,0,0,.32-.93c-.55-2.21-1.07-4.44-1.56-6.66a2.67,2.67,0,0,1,0-1.16q.75-3.33,1.57-6.66A.78.78,0,0,0,50.4,20c-1.67-1.41-3.34-2.83-5-4.29a4,4,0,0,1-1-1.35c-.87-2-1.7-4-2.51-6A1,1,0,0,0,41,7.67c-2.06-.13-4.12-.27-6.18-.49a5.23,5.23,0,0,1-2-.64c-1.83-1-3.62-2.17-5.43-3.27Z"/><path class="cls-1" d="M37.46,63.48A1.44,1.44,0,0,1,36,62a1.46,1.46,0,0,1,1.44-1.46A1.53,1.53,0,0,1,39,62,1.49,1.49,0,0,1,37.46,63.48Z"/><path class="cls-1" d="M26.92,47.19A19.07,19.07,0,1,1,45.93,28,19.1,19.1,0,0,1,26.92,47.19Zm0-3a16,16,0,1,0-16.09-16A16.06,16.06,0,0,0,26.9,44.16Z"/><path class="cls-1" d="M25.29,18.24c0-.37,0-.72,0-1.06a1.47,1.47,0,0,1,1.52-1.39,1.32,1.32,0,0,1,1.41,1.37c0,.94.37,1.2,1.16,1.48a13.12,13.12,0,0,1,2.73,1.42,1.44,1.44,0,0,1,.43,2.12,1.48,1.48,0,0,1-2.15.29,6.37,6.37,0,0,0-3.88-1.37,2.19,2.19,0,0,0-2.17,2.08,1.49,1.49,0,0,0,.82,1.66q2.1,1,4.23,1.87a5.42,5.42,0,0,1,3.39,3.72A6.21,6.21,0,0,1,29,37.6l-.67.25c-.21,2.13-.51,2.62-1.57,2.6s-1.36-.56-1.49-2.23c-1.24-.53-2.42-1-3.53-1.55a1.45,1.45,0,0,1-.7-2.1,1.48,1.48,0,0,1,2.24-.41,5.8,5.8,0,0,0,3.95.82A3.19,3.19,0,0,0,30,32.12a2.58,2.58,0,0,0-1.9-2.73c-1.18-.48-2.37-.94-3.53-1.47-2-.92-3.35-2.39-3.21-4.73A5.19,5.19,0,0,1,25.29,18.24Z"/></g></g></svg>