<svg xmlns="http://www.w3.org/2000/svg" viewBox="0 0 61.97 75.81"><defs><style>.cls-1{fill:#1c2655;}</style></defs><g id="Layer_2" data-name="Layer 2"><g id="Layer_6" data-name="Layer 6"><path class="cls-1" d="M36.91,0a3.94,3.94,0,0,1,1.63,2.27,1.26,1.26,0,0,0,1.15.82q.66.08,1.32.18A1.74,1.74,0,0,1,42.52,4.5a1.51,1.51,0,0,1-.47,1.81A2.94,2.94,0,0,0,40.86,10a1.56,1.56,0,0,1-.7,1.74,1.51,1.51,0,0,1-1.87.11,3,3,0,0,0-3.91,0,1.52,1.52,0,0,1-1.93-.16,1.6,1.6,0,0,1-.62-1.83,2.66,2.66,0,0,0-1-3.41,1.67,1.67,0,0,1-.62-2,1.69,1.69,0,0,1,1.7-1.19,2.56,2.56,0,0,0,2.73-1.9c.17-.52.74-.91,1.13-1.36ZM34.22,9.44a3.21,3.21,0,0,1,4.23,0,3.24,3.24,0,0,1,1.34-4,3.14,3.14,0,0,1-3.46-2.47,3.23,3.23,0,0,1-3.47,2.5A3.23,3.23,0,0,1,34.22,9.44Z"/><path class="cls-1" d="M28.12,63.67c3.18,0,6.37,0,9.55,0A2.29,2.29,0,0,0,39,62.89c2.9-2.86,5.79-5.72,8.64-8.63,1.68-1.73,3.53-2.33,5.79-1.25a.78.78,0,0,0,.59-.08,4.42,4.42,0,0,1,6.53,3.27,2.76,2.76,0,0,0,.5,1.1A4.42,4.42,0,0,1,60.89,63c-1,1.13-2.14,2.19-3.23,3.26a1.11,1.11,0,1,1-1.58-1.56c1-1,2-2,3-3a2.12,2.12,0,0,0,.56-2.24,2.05,2.05,0,0,0-1.76-1.49,2.27,2.27,0,0,0-2,.8c-2.91,2.92-5.85,5.8-8.72,8.75a5.52,5.52,0,0,1-4.23,1.74c-4.39,0-8.78-.09-13.17,0-2.91.07-4.38-1.73-4.17-4.13a14.53,14.53,0,0,1,.06-1.48A3.34,3.34,0,0,1,29,60.87c2.05,0,4.1,0,6.14,0a2.14,2.14,0,0,0,2.22-2,2.12,2.12,0,0,0-2.16-2.29c-1.7,0-3.41,0-5.11,0h-15v.74c0,4.22,0,8.44,0,12.65,0,.51.11.81.64,1,2.26.74,4.48,1.62,6.78,2.24a16.5,16.5,0,0,0,4.1.41c5.95,0,11.89,0,17.84,0A6,6,0,0,0,49,71.69c1-1.07,2.08-2.11,3.13-3.15.63-.62,1.25-.69,1.75-.22s.45,1.18-.18,1.81c-1.11,1.12-2.22,2.24-3.35,3.35a7.7,7.7,0,0,1-5.65,2.31c-5.7,0-11.4-.07-17.1,0a26,26,0,0,1-11.06-2.17c-.45-.19-.91-.36-1.41-.56,0,.27,0,.46-.06.65a2.1,2.1,0,0,1-2.16,2c-3.6,0-7.2,0-10.8,0C.76,75.73,0,74.83,0,73.29Q0,66.63,0,60V52.86a2.17,2.17,0,0,1,2.5-2.48q5.07,0,10.14,0a2.2,2.2,0,0,1,2.48,2.52v1.35h9.47l-.73-1.15a12.73,12.73,0,1,1,23.28-9.29c.16.83-.15,1.4-.84,1.54s-1.19-.27-1.37-1.12a10.45,10.45,0,0,0-13.84-7.65A9.94,9.94,0,0,0,24.31,45a10,10,0,0,0,3,8.88,1.64,1.64,0,0,0,1,.42c2.17,0,4.34,0,6.51,0a4.76,4.76,0,0,1,3.67,1.44.86.86,0,0,0,.8.05,10.32,10.32,0,0,0,5.27-6,5.85,5.85,0,0,1,.3-.83,1,1,0,0,1,1.23-.58A1,1,0,0,1,47,49.5a4.33,4.33,0,0,1-.24,1,12.78,12.78,0,0,1-6.53,7.4,1,1,0,0,0-.52.64,4.54,4.54,0,0,1-4.76,4.6c-1.92,0-3.85,0-5.77,0A5.64,5.64,0,0,0,28,63.4ZM2.3,52.7V73.43H12.79V52.7ZM27.84,65.93c.15.91.72,1,1.37,1,4.61,0,9.23,0,13.84,0a3.08,3.08,0,0,0,2.36-1c2.57-2.6,5.17-5.16,7.74-7.76,1.32-1.33,2.58-2.74,4.78-2.54a2.15,2.15,0,0,0-3.56-.18c-2.94,2.92-5.88,5.84-8.78,8.8a5.25,5.25,0,0,1-4,1.65c-4.27,0-8.54,0-12.8,0Zm13.64-2.31a2.47,2.47,0,0,0,2.35-.76c2.55-2.57,5.12-5.12,7.68-7.68.09-.1.17-.21.29-.36a2.06,2.06,0,0,0-2,.5Z"/><path class="cls-1" d="M21.53,10.67c.54-.57,1.08-1.18,1.66-1.75a1.91,1.91,0,0,1,2.89-.05c.89.85,1.76,1.73,2.61,2.62a1.89,1.89,0,0,1,0,2.88c-.46.48-.92,1-1.42,1.41a.61.61,0,0,0-.1.9c.2.35.15.9.83.84a16.52,16.52,0,0,1,2,0,1.93,1.93,0,0,1,2,2c0,1.24,0,2.47,0,3.71a1.91,1.91,0,0,1-2,2,16.68,16.68,0,0,1-2,0c-.48,0-.65.2-.77.59s-.51.74,0,1.17a17,17,0,0,1,1.42,1.4,1.9,1.9,0,0,1,0,2.83q-1.31,1.38-2.67,2.67a1.93,1.93,0,0,1-2.84,0,10.41,10.41,0,0,1-1.14-1.16,1,1,0,0,0-1.44-.28c-.46.22-.64.43-.6.92s0,1.24,0,1.85a1.89,1.89,0,0,1-1.91,2c-1.31,0-2.62.05-3.92,0a1.89,1.89,0,0,1-1.88-2,13.35,13.35,0,0,1,0-2c.08-.75-.53-.7-.92-.93a.61.61,0,0,0-.89.16c-.44.49-.92,1-1.41,1.41a1.9,1.9,0,0,1-2.78,0c-.93-.88-1.84-1.79-2.72-2.72a1.89,1.89,0,0,1,.06-2.83,10.38,10.38,0,0,1,1.11-1.09,1,1,0,0,0,.31-1.5c-.2-.37-.35-.58-.8-.55-.64,0-1.28,0-1.92,0a1.94,1.94,0,0,1-2-2.05c0-1.24,0-2.47,0-3.7a1.93,1.93,0,0,1,2-2,11.19,11.19,0,0,1,1.92,0c.72.09.74-.46,1-.86A.66.66,0,0,0,5,15.71c-.5-.45-1-.93-1.42-1.41a1.86,1.86,0,0,1,0-2.72c.89-.95,1.82-1.88,2.77-2.77a1.89,1.89,0,0,1,2.73,0A10.41,10.41,0,0,1,10.24,10a1,1,0,0,0,1.55.31c.39-.21.56-.38.54-.82,0-.64,0-1.28,0-1.92a1.9,1.9,0,0,1,1.92-2c1.28,0,2.56,0,3.84,0a1.89,1.89,0,0,1,2,2,11.45,11.45,0,0,1,0,1.55c-.07.69.1,1.15.84,1.27A3.63,3.63,0,0,1,21.53,10.67Zm-7,24.27h3.19a17.32,17.32,0,0,1,.28-3.2c.32-1.18,1.63-1.24,2.56-1.66,2.12-1,2.77,1.22,4,2L27,29.68c-.2-.14-.46-.3-.69-.47-1.63-1.21-2.1-2.61-1-4.52C26,23.46,26.3,23,27.74,23h2V19.79h-2a2.17,2.17,0,0,1-2.47-1.74c-.13-.32-.26-.64-.4-.95a1.93,1.93,0,0,1,.45-2.54c.53-.53,1.1-1,1.55-1.46l-2.35-2.48c-.55.58-1.07,1.17-1.63,1.72a1.9,1.9,0,0,1-2.3.41c-.45-.2-.91-.39-1.36-.57a2,2,0,0,1-1.44-2.08c0-.75,0-1.51,0-2.25H14.55V9.42c0,2-.18,2.25-2,3-.23.09-.45.2-.67.3a2,2,0,0,1-2.55-.45c-.53-.54-1-1.12-1.46-1.62L5.43,13.08c.29.25.64.53,1,.84C8,15.56,8,15.61,7.17,17.76L7,18.18a2.08,2.08,0,0,1-2.27,1.6H2.6V23h2A2.1,2.1,0,0,1,7.05,24.7c.13.35.29.68.43,1a2,2,0,0,1-.42,2.49c-.54.54-1.11,1-1.62,1.53l2.4,2.4c.38-.4.79-.86,1.22-1.3,1.16-1.17,1.66-1.26,3.14-.6.33.15.68.28,1,.41a2,2,0,0,1,1.33,1.94Z"/><path class="cls-1" d="M40.59,28.67c.12-.66.27-1.56.44-2.45a1.06,1.06,0,0,0-.35-1.12c-.61-.53-1.18-1.12-1.75-1.7A2,2,0,0,1,40,20c.88-.14,1.76-.24,2.63-.42a1.17,1.17,0,0,0,.69-.5c.42-.72.77-1.48,1.14-2.24a2,2,0,0,1,1.84-1.24,2,2,0,0,1,1.87,1.23,11.22,11.22,0,0,1,.74,1.52,1.83,1.83,0,0,0,1.95,1.39,10.38,10.38,0,0,1,1.83.28,2,2,0,0,1,1.07,3.31c-.59.66-1.28,1.23-1.88,1.88a1.3,1.3,0,0,0-.29.88c.08.81.25,1.6.39,2.4a2,2,0,0,1-.74,2.11,2,2,0,0,1-2.23.15c-.74-.38-1.47-.81-2.23-1.14a1.22,1.22,0,0,0-.92,0c-.83.37-1.6.86-2.43,1.23A2,2,0,0,1,40.59,28.67Zm9.08-.15c-.15-.89-.26-1.61-.41-2.33A2.25,2.25,0,0,1,50,23.85c.6-.53,1.18-1.09,1.88-1.75-1-.14-1.74-.26-2.49-.35a2.24,2.24,0,0,1-2-1.36c-.33-.74-.72-1.44-1.13-2.27-.41.82-.78,1.54-1.12,2.27a2.25,2.25,0,0,1-2,1.36c-.76.09-1.51.23-2.3.35L42.73,24a2.1,2.1,0,0,1,.6,2c-.16.79-.26,1.59-.42,2.53l2.28-1.19a2.15,2.15,0,0,1,2.18,0C48.08,27.72,48.81,28.08,49.67,28.52Z"/><path class="cls-1" d="M33.87,48.31l5.19-5.19a4.37,4.37,0,0,1,.6-.54,1,1,0,0,1,1.41.16,1.07,1.07,0,0,1,.13,1.36,2.74,2.74,0,0,1-.38.45L35,50.4c-.81.81-1.33.81-2.13,0L28.45,46a1.16,1.16,0,0,1-.18-1.7,1.13,1.13,0,0,1,1.75.09C31.29,45.69,32.55,47,33.87,48.31Z"/><path class="cls-1" d="M16.19,28.9A7.51,7.51,0,1,1,22.9,18c.39.78.27,1.41-.34,1.74s-1.22.08-1.66-.73a5.31,5.31,0,0,0-5.37-2.89,5.27,5.27,0,0,0-1.22,10.16,5.28,5.28,0,0,0,6.41-2.25c.1-.17.18-.35.28-.52A1.12,1.12,0,0,1,22.55,23a1.15,1.15,0,0,1,.44,1.6A7.51,7.51,0,0,1,16.19,28.9Z"/><path class="cls-1" d="M19.45,21.4a3.27,3.27,0,1,1-3.29-3.3A3.29,3.29,0,0,1,19.45,21.4Zm-2.23,0a1,1,0,1,0-1,1A1,1,0,0,0,17.22,21.38Z"/></g></g></svg>