<svg xmlns="http://www.w3.org/2000/svg" viewBox="0 0 55.08 69.79"><defs><style>.cls-1{fill:#1f2655;}</style></defs><g id="Layer_2" data-name="Layer 2"><g id="Layer_6" data-name="Layer 6"><path class="cls-1" d="M33.55,0c.49.14,1,.26,1.48.43a7.19,7.19,0,0,1,3.39,2.31,6.11,6.11,0,0,0,4.06,2.34,7.8,7.8,0,0,1,6.31,6.42,5.88,5.88,0,0,0,2.11,3.75,7.76,7.76,0,0,1,2.4,9,5.85,5.85,0,0,0,0,4.18,7.79,7.79,0,0,1-2.44,9,5.62,5.62,0,0,0-2.07,3.62,7.55,7.55,0,0,1-2.27,4.39.65.65,0,0,0-.13,1q4.16,7.16,8.27,14.31a2.58,2.58,0,0,1,.38.93c.15,1.07-.73,1.75-1.85,1.45l-7.08-1.9-.4-.08c-.43,1.58-.86,3.15-1.28,4.71-.23.83-.47,1.66-.66,2.49s-.45,1.26-1.21,1.39-1.27-.38-1.65-1Q36.49,61,32,53.26a1.24,1.24,0,0,0-1-.71,7.9,7.9,0,0,1-1.62-.48,5.49,5.49,0,0,0-3.73,0c-.62.21-1.27.32-1.89.54a1.33,1.33,0,0,0-.61.54l-9,15.55a2.72,2.72,0,0,1-.67.83,1.37,1.37,0,0,1-2.13-1c-.51-1.9-1-3.81-1.52-5.71l-.47-1.71-3.93,1c-1.18.32-2.37.62-3.54,1A1.37,1.37,0,0,1,.3,62.7,1.41,1.41,0,0,1,.28,61c2.78-4.8,5.54-9.62,8.34-14.42a.74.74,0,0,0-.16-1.12A7.52,7.52,0,0,1,6.18,41a5.47,5.47,0,0,0-2-3.46,7.85,7.85,0,0,1-2.48-9.24,5.54,5.54,0,0,0,0-3.91,7.85,7.85,0,0,1,2.49-9.24,5.45,5.45,0,0,0,1.95-3.46A7.88,7.88,0,0,1,12.76,5a5.47,5.47,0,0,0,3.58-2A7.77,7.77,0,0,1,21.19.12,1.27,1.27,0,0,0,21.42,0h2.31c3.31,1.25,4.36,1.25,7.5,0Zm-1,50a5.46,5.46,0,0,0,3.93-2,8.25,8.25,0,0,1,5.34-3.09,5,5,0,0,0,4.29-4.32,8.47,8.47,0,0,1,3.1-5.34,5,5,0,0,0,1.57-5.82,8.61,8.61,0,0,1,0-6.24,5,5,0,0,0-1.62-5.87,8.32,8.32,0,0,1-3-5.29,5.06,5.06,0,0,0-4.3-4.31,8.16,8.16,0,0,1-5.12-2.83,5.14,5.14,0,0,0-6.37-1.73,8,8,0,0,1-5.59,0,5.11,5.11,0,0,0-6.33,1.67,8.29,8.29,0,0,1-5.16,2.89,5.09,5.09,0,0,0-4.34,4.36,8.17,8.17,0,0,1-3,5.19,5.1,5.1,0,0,0-1.62,6.11,8.14,8.14,0,0,1,0,5.85A5.11,5.11,0,0,0,6,35.42a8.09,8.09,0,0,1,2.92,5.14,5.1,5.1,0,0,0,4.33,4.38,8.42,8.42,0,0,1,5.3,3,5,5,0,0,0,6,1.59,8.25,8.25,0,0,1,6,0A15.51,15.51,0,0,0,32.53,50ZM41.86,64.8c.09-.25.12-.33.14-.41l1.37-5.12a1.39,1.39,0,0,1,1.9-1.1l3.41.91,2.18.55-7.1-12.31-1.92.4a4.64,4.64,0,0,0-2.76,1.5,9,9,0,0,1-4.39,3.15ZM11.32,47.35,4.26,59.59c.32-.06.5-.07.66-.12l4.72-1.26c1.2-.32,1.79,0,2.12,1.22l1.46,5.4L20.4,52.39a8.39,8.39,0,0,1-4.22-2.9,4.89,4.89,0,0,0-3-1.76Z"/><path class="cls-1" d="M27.57,41.85A15.17,15.17,0,0,0,42.39,28.93a15,15,0,0,0-8.85-15.86l-.44-.19a1.37,1.37,0,1,1,1.06-2.52A17,17,0,0,1,40.74,15a17.73,17.73,0,1,1-20-4.51A2.26,2.26,0,0,1,22,10.33a1.19,1.19,0,0,1,.92,1.22A1.47,1.47,0,0,1,22,12.92a23,23,0,0,0-3.79,2.24c-4.77,4-6.59,9.14-5.14,15.15S18.43,40,24.41,41.42A30,30,0,0,0,27.57,41.85Z"/><path class="cls-1" d="M26.1,24.16a4.58,4.58,0,0,1,.44-.67q2.54-2.56,5.1-5.1a1.43,1.43,0,0,1,2.35,0q1.95,1.93,3.89,3.9a1.38,1.38,0,0,1,0,2.24L27.14,35.24a1.39,1.39,0,0,1-2.29,0l-7.61-7.61a1.4,1.4,0,0,1,0-2.29l3.9-3.9a1.4,1.4,0,0,1,2.25,0C24.26,22.28,25.09,23.15,26.1,24.16Zm-6,2.28L26,32.37l9-9-2.24-2.23-5.49,5.51c-.92.92-1.58.92-2.49,0l-2.4-2.41Z"/><path class="cls-1" d="M26.19,10.46a1.36,1.36,0,0,1,2.72-.06,1.36,1.36,0,1,1-2.72.06Z"/></g></g></svg>