<svg xmlns="http://www.w3.org/2000/svg" viewBox="0 0 182.32 41.91"><defs><style>.cls-1{fill:#f26522;}</style></defs><g id="Layer_2" data-name="Layer 2"><g id="doi_tac" data-name="doi tac"><path class="cls-1" d="M93.34,27.33a9,9,0,0,1-1,1.12,10.49,10.49,0,0,1-18-7.5,10.62,10.62,0,0,1,18-7.5l.35.37,7.84-7.13c-.23-.25-.46-.49-.7-.73a20.41,20.41,0,0,0-15-6,20.28,20.28,0,0,0-21,20.94,20.39,20.39,0,0,0,21,21,20.3,20.3,0,0,0,15-6c.34-.35.68-.7,1-1.06Z"/><polygon class="cls-1" points="0 1.05 0 10.48 0 10.48 0 16.23 0 16.23 0 25.66 0 25.66 0 40.85 11.53 40.85 11.53 25.66 25.15 25.66 25.15 16.23 11.53 16.23 11.53 10.48 28.29 10.48 28.29 1.05 0 1.05"/><polygon class="cls-1" points="60.77 10.48 60.77 1.05 32.48 1.05 32.48 40.85 60.77 40.85 60.77 31.42 44.01 31.42 44.01 25.66 60.77 25.66 60.77 16.23 44.01 16.23 44.01 10.48 60.77 10.48"/><polygon class="cls-1" points="170.79 1.05 170.79 20.96 158.22 1.05 146.69 1.05 146.69 40.85 158.22 40.85 158.22 20.96 170.79 40.87 170.79 40.85 182.32 40.85 182.32 1.05 170.79 1.05"/><path class="cls-1" d="M115.27,32.23h12.57V30.64H115.27Zm0-2.88h12.57V28.29H115.27Zm0-3.15h12.57V25.15H115.27Zm0,13.6h12.57V36.67H115.27Zm0-4.16h12.57V33.53H115.27ZM136.54,6a20.41,20.41,0,0,0-15-6,20.28,20.28,0,0,0-21,20.94,20.37,20.37,0,0,0,5.92,15,19.56,19.56,0,0,0,6.64,4.47V21a.81.81,0,0,1,.23-.56h0L121,12.8a.79.79,0,0,1,.56-.23.83.83,0,0,1,.56.23l7.53,7.58s0,0,0,0l0,0h0a.85.85,0,0,1,.19.52V40.38a19.57,19.57,0,0,0,6.65-4.46,20.38,20.38,0,0,0,5.95-15,20.38,20.38,0,0,0-6-15"/></g></g></svg>