<svg xmlns="http://www.w3.org/2000/svg" viewBox="0 0 159.05 62.2"><defs><style>.cls-1{fill:#231f20;}.cls-2{fill:#da2128;}.cls-3{fill:#fcaf17;}.cls-4{fill:#1268b3;}</style></defs><g id="Layer_2" data-name="Layer 2"><g id="doi_tac" data-name="doi tac"><path class="cls-1" d="M72,21.32c1.5-.05,1.7-.19,1.7-1.73,0-1.23-.22-1.61-1.7-1.61H69.42v3.34Zm-6.38,5.83V15.21h7.14c3.52,0,4.85,1.25,4.85,4.38,0,3.36-.89,4.5-4.85,4.5H69.42v3.06Z"/><polygon class="cls-1" points="92.11 27.15 88.32 27.15 88.32 22.47 83.38 22.47 83.38 27.15 79.59 27.15 79.59 15.21 83.38 15.21 83.38 19.7 88.32 19.7 88.32 15.21 92.11 15.21 92.11 27.15"/><path class="cls-1" d="M101.05,17.59h0l-1.72,5.18h3.52Zm-2.58,7.5-.7,2.06H93.83l4.26-11.94h5.76l4.32,11.94h-3.86l-.74-2.06Z"/><polygon class="cls-1" points="114.63 27.15 110.84 27.15 110.84 17.98 107.21 17.98 107.21 15.21 118.46 15.21 118.46 17.98 114.63 17.98 114.63 27.15"/><path class="cls-1" d="M124.37,24.38h3.32c1.4,0,1.91-.78,1.91-2v-2.5c0-1.55-.59-1.86-1.91-1.86h-3.32Zm-3.79-9.17h7.2c4,0,5.72,1.24,5.72,4.63v2.5c0,3.26-1.25,4.81-5.21,4.81h-7.71Z"/><path class="cls-1" d="M141.64,17.59h0l-1.73,5.18h3.53Zm-2.57,7.5-.7,2.06h-4l4.27-11.94h5.76l4.32,11.94H144.9l-.74-2.06Z"/><polygon class="cls-1" points="155.23 27.15 151.44 27.15 151.44 17.98 147.8 17.98 147.8 15.21 159.05 15.21 159.05 17.98 155.23 17.98 155.23 27.15"/><polygon class="cls-2" points="26.99 0 0 15.55 0 32.85 6.04 36.32 6.04 19.01 26.99 6.92 47.94 19.01 47.94 29.34 26.98 41.39 18.09 36.24 18.09 25.97 26.98 20.83 32.39 23.95 21.33 30.33 27.25 33.75 44.39 23.86 26.99 13.83 12.03 22.47 12.03 39.75 26.99 48.38 53.92 32.79 53.92 15.55 26.99 0"/><polygon class="cls-3" points="0 39.81 0 46.63 26.96 62.2 26.96 55.28 0 39.81"/><polygon class="cls-4" points="26.96 55.28 26.96 62.2 53.92 46.66 53.92 39.81 26.96 55.28"/><path class="cls-1" d="M71.09,35.62v.23c0,1-.12,1.42-.54,1.74s-.83.37-2.22.37c-1.13,0-1.57-.09-2-.4s-.68-.92-.71-2.14,0-1.08,0-1.29c0-1.45.11-1.92.55-2.33s1-.57,2.58-.57a2.7,2.7,0,0,1,1.57.26A1.43,1.43,0,0,1,71,32.66c0,.21,0,.33,0,.75H70v-.18c0-1-.2-1.12-1.35-1.12-1.78,0-2,.14-2,1.56a15.26,15.26,0,0,0,.1,2.66c.13.62.42.76,1.58.76,1.5,0,1.72-.15,1.72-1.13,0-.11,0-.19,0-.34Z"/><path class="cls-1" d="M79.15,34.58v-.92a1.87,1.87,0,0,0-.32-1.26c-.23-.25-.5-.29-1.54-.29a3,3,0,0,0-1.34.14c-.3.15-.45.43-.51,1,0,.22,0,.29,0,1.37,0,1.53,0,1.66.18,2s.5.49,1.7.49c1,0,1.28-.05,1.52-.29a2,2,0,0,0,.33-1.3Zm0-3.1a1.79,1.79,0,0,1,.94,1.46,9.58,9.58,0,0,1,.06,1.52c0,1.74-.06,2.17-.34,2.66a1.83,1.83,0,0,1-1.5.8c-.31,0-.67,0-1.11,0a3.7,3.7,0,0,1-2-.32,1.69,1.69,0,0,1-.8-1.37,9.5,9.5,0,0,1-.07-1.68c0-1.63.07-2.08.4-2.58s1-.77,2.52-.77a4.11,4.11,0,0,1,1.85.24"/><path class="cls-1" d="M86.45,34.61a1.49,1.49,0,0,0,1-.22c.23-.18.3-.39.3-1,0-.79-.07-1-.38-1.17a1.92,1.92,0,0,0-.7-.11H84.49v2.45Zm-3-3.32h3.2c1.52,0,2,.51,2,1.94,0,1.26-.25,1.64-1.17,1.81v0c.74.06,1.09.46,1.09,1.28V37.9h-1V36.56c0-.46-.07-.69-.28-.86s-.37-.22-.84-.22h-2V37.9h-1Z"/><path class="cls-1" d="M94.64,34.67c1.28,0,1.48-.17,1.48-1.18s-.09-1.16-.48-1.28a2.19,2.19,0,0,0-.82-.06H93.05v2.52ZM92,31.29h2.72a3.24,3.24,0,0,1,1.53.17c.61.27.86.86.86,1.95,0,1.24-.29,1.82-1,2.05a5.35,5.35,0,0,1-1.36.08H93.05V37.9H92Z"/><path class="cls-1" d="M105.21,34.58v-.92a1.87,1.87,0,0,0-.32-1.26c-.23-.25-.51-.29-1.54-.29a3.08,3.08,0,0,0-1.35.14c-.29.15-.44.43-.5,1,0,.22,0,.29,0,1.37,0,1.53,0,1.66.18,2s.49.49,1.7.49c1,0,1.28-.05,1.52-.29a2,2,0,0,0,.33-1.3Zm0-3.1a1.79,1.79,0,0,1,.94,1.46,9.58,9.58,0,0,1,.06,1.52c0,1.74-.06,2.17-.34,2.66a1.84,1.84,0,0,1-1.51.8c-.3,0-.66,0-1.1,0a3.68,3.68,0,0,1-2-.32,1.69,1.69,0,0,1-.8-1.37,9.5,9.5,0,0,1-.07-1.68c0-1.63.07-2.08.4-2.58s1-.77,2.52-.77a4.11,4.11,0,0,1,1.85.24"/><path class="cls-1" d="M112.51,34.61a1.51,1.51,0,0,0,.95-.22c.23-.18.3-.39.3-1,0-.79-.07-1-.38-1.17a2,2,0,0,0-.7-.11h-2.13v2.45Zm-3-3.32h3.2c1.52,0,2,.51,2,1.94,0,1.26-.25,1.64-1.17,1.81v0c.74.06,1.09.46,1.09,1.28V37.9h-1V36.56c0-.46-.07-.69-.28-.86a1.09,1.09,0,0,0-.84-.22h-2V37.9h-1Z"/><path class="cls-1" d="M121.16,32.09l-1.28,3.71h2.57Zm-1.54,4.48-.46,1.33h-1.07l2.31-6.61h1.48l2.34,6.61h-1l-.47-1.33Z"/><polygon class="cls-1" points="130.56 37.9 129.55 37.9 129.55 32.21 127.53 32.21 127.53 31.29 132.61 31.29 132.61 32.21 130.56 32.21 130.56 37.9"/><rect class="cls-1" x="135.93" y="31.29" width="1.01" height="6.61"/><path class="cls-1" d="M145,34.58v-.92a1.94,1.94,0,0,0-.31-1.26c-.23-.25-.51-.29-1.54-.29a3,3,0,0,0-1.34.14c-.3.15-.45.43-.51,1,0,.22,0,.29,0,1.37,0,1.53,0,1.66.18,2s.49.49,1.7.49c1,0,1.28-.05,1.52-.29a2,2,0,0,0,.32-1.3Zm0-3.1a1.75,1.75,0,0,1,.94,1.46,8.44,8.44,0,0,1,.06,1.52c0,1.74-.06,2.17-.33,2.66a1.84,1.84,0,0,1-1.51.8c-.3,0-.66,0-1.1,0a3.68,3.68,0,0,1-1.95-.32,1.69,1.69,0,0,1-.8-1.37,9.5,9.5,0,0,1-.07-1.68c0-1.63.07-2.08.4-2.58s1-.77,2.52-.77a4,4,0,0,1,1.84.24"/><path class="cls-1" d="M155.22,37.9h-1.69l-2.32-4c-.11-.21-.24-.48-.58-1.13-.1-.19-.2-.38-.29-.57h0q0,.9,0,1.38V37.9h-1V31.29H151l2.05,3.64c.23.41.44.79,1.14,2.11h0c0-.6,0-1,0-1.36V31.29h1Z"/><path class="cls-1" d="M69.09,43.51a.68.68,0,0,1-.22.59,1.67,1.67,0,0,1-.88.16H66.36V42.63H68.2a1.19,1.19,0,0,1,.73.16,1.13,1.13,0,0,1,.16.72m.7-.12a1.28,1.28,0,0,0-.37-1,2.1,2.1,0,0,0-1.23-.3H65.63V46.6h.73V44.83h1.9c.51,0,.71.21.72.69V46.6h.73V45.41a.81.81,0,0,0-.54-.86.9.9,0,0,0,.42-.27,1.48,1.48,0,0,0,.2-.89"/><path class="cls-1" d="M73.41,44.58v.07H71.49a.84.84,0,0,1,.17-.63,1.25,1.25,0,0,1,.79-.15,1.47,1.47,0,0,1,.8.13.76.76,0,0,1,.16.58m.7.94h-.69v.17c0,.2-.06.3-.16.34a2.1,2.1,0,0,1-.8.09c-.45,0-.73-.07-.81-.18a1.3,1.3,0,0,1-.17-.8h2.63v-.31a1.57,1.57,0,0,0-.34-1.2,2.17,2.17,0,0,0-1.37-.29,1.88,1.88,0,0,0-1.3,3,2,2,0,0,0,1.38.34,2.93,2.93,0,0,0,1.25-.2.78.78,0,0,0,.38-.74v-.19Z"/><path class="cls-1" d="M77.51,45.2a.44.44,0,0,1,.18.42c0,.32-.31.5-1.07.5a1.47,1.47,0,0,1-.71-.11c-.09,0-.15-.19-.15-.42s.06-.36.15-.41a1.87,1.87,0,0,1,.77-.1,2,2,0,0,1,.83.12M78,43.58a2.4,2.4,0,0,0-1.29-.24,2.33,2.33,0,0,0-1.17.2.86.86,0,0,0-.32.78v.07h.68v-.16c0-.24.25-.39.91-.4a1.16,1.16,0,0,1,.7.14c.09.07.15.29.15.63v.21a1.87,1.87,0,0,0-1.09-.22,2.25,2.25,0,0,0-1.17.22,1,1,0,0,0-.34.83c0,.67.52,1,1.46,1a1.93,1.93,0,0,0,1.16-.28l0,.15v.08h.7V44.5a1.07,1.07,0,0,0-.35-.92"/><polygon class="cls-1" points="80.19 42.06 79.65 42.06 79.58 42.06 79.58 46.6 80.27 46.6 80.27 42.06 80.19 42.06"/><polygon class="cls-1" points="83.61 46.6 87.11 46.6 87.11 46.11 87.11 46.03 84.34 46.03 84.34 44.54 87.01 44.54 87.01 44.05 87.01 43.98 84.34 43.98 84.34 42.63 87.11 42.63 87.11 42.14 87.11 42.06 83.61 42.06 83.61 46.6"/><path class="cls-1" d="M90.11,44.73l-.55,0-.44,0c-.34,0-.46-.14-.47-.41s0-.3.12-.33a2.06,2.06,0,0,1,.73-.07,2.6,2.6,0,0,1,.77.06c.07,0,.12.13.12.33v.07h.68v-.18c0-.56-.55-.81-1.53-.81a3,3,0,0,0-1.25.18.78.78,0,0,0-.34.75.77.77,0,0,0,.43.79,4.84,4.84,0,0,0,1.64.18c.33,0,.44.12.46.41s-.07.32-.18.38a2.59,2.59,0,0,1-.84.09,1.63,1.63,0,0,1-.69-.09.35.35,0,0,1-.15-.34v-.21h-.7v.23a.78.78,0,0,0,.38.75,2.94,2.94,0,0,0,1.27.19,2.5,2.5,0,0,0,1.24-.21.81.81,0,0,0,.37-.77c0-.59-.39-.92-1.07-.94"/><path class="cls-1" d="M93.75,45.59v.17c0,.25-.11.35-.44.36s-.42-.12-.44-.42V43.91h1.4v-.52h-1.4v-.76h-.69v.76h-.51v.52h.51v1.9c0,.55.42.84,1.13.84a1.2,1.2,0,0,0,.82-.25.94.94,0,0,0,.28-.74v-.3h-.63Z"/><path class="cls-1" d="M97.62,45.62c0,.32-.3.5-1.07.5a1.42,1.42,0,0,1-.7-.11c-.1,0-.16-.19-.16-.42s.06-.36.15-.41a1.91,1.91,0,0,1,.77-.1,2,2,0,0,1,.83.12c.12.07.18.19.18.42m.31-2a2.48,2.48,0,0,0-1.28-.24,2.37,2.37,0,0,0-1.18.2.86.86,0,0,0-.32.78v.07h.68v-.16c0-.24.25-.39.91-.4a1.16,1.16,0,0,1,.7.14c.09.07.15.29.15.63v.21a1.87,1.87,0,0,0-1.09-.22,2.28,2.28,0,0,0-1.17.22,1,1,0,0,0-.34.83c0,.67.53,1,1.46,1a1.93,1.93,0,0,0,1.16-.28l0,.15v.08h.7V44.5a1.07,1.07,0,0,0-.35-.92"/><path class="cls-1" d="M101.07,45.59v.17c0,.25-.12.35-.44.36s-.43-.12-.44-.42V43.91h1.4v-.52h-1.4v-.76h-.69v.76H99v.52h.51v1.9c0,.55.41.84,1.13.84a1.17,1.17,0,0,0,.81-.25.94.94,0,0,0,.28-.74v-.3h-.63Z"/><path class="cls-1" d="M103.07,44.65c0-.34.07-.55.17-.63a1.27,1.27,0,0,1,.79-.15,1.47,1.47,0,0,1,.8.13.76.76,0,0,1,.16.58v.07Zm2.62.87H105v.17c0,.2-.06.3-.15.34a2.2,2.2,0,0,1-.81.09c-.45,0-.72-.07-.81-.18a1.35,1.35,0,0,1-.17-.8h2.63v-.31a1.57,1.57,0,0,0-.34-1.2,2.24,2.24,0,0,0-1.37-.29,1.9,1.9,0,0,0-1.3.33,1.87,1.87,0,0,0-.33,1.29,1.9,1.9,0,0,0,.33,1.35,2,2,0,0,0,1.38.34,2.9,2.9,0,0,0,1.25-.2.79.79,0,0,0,.39-.74v-.19Z"/><path class="cls-1" d="M112.93,44.39a2.39,2.39,0,0,1-.25,1.35,1.57,1.57,0,0,1-1.16.29h-1.63v-3.4h1.75c.58,0,.94.11,1.07.29a3.12,3.12,0,0,1,.22,1.47m-1.28-2.33h-2.5V46.6h2.64a1.78,1.78,0,0,0,1.48-.51,3.59,3.59,0,0,0,.36-2,2.4,2.4,0,0,0-.42-1.64,2.19,2.19,0,0,0-1.56-.44"/><path class="cls-1" d="M117.18,44.65h-1.93c0-.34.07-.55.17-.63a1.35,1.35,0,0,1,.79-.16,1.52,1.52,0,0,1,.8.14c.1.07.17.26.17.58Zm.69.87h-.69v.17c0,.2-.06.3-.15.34a2.16,2.16,0,0,1-.81.09c-.45,0-.72-.07-.81-.18a1.35,1.35,0,0,1-.17-.8h2.63v-.31a1.61,1.61,0,0,0-.33-1.2,2.22,2.22,0,0,0-1.38-.29,1.87,1.87,0,0,0-1.29.33,1.83,1.83,0,0,0-.34,1.29,2,2,0,0,0,.33,1.36,2.06,2.06,0,0,0,1.38.33,2.87,2.87,0,0,0,1.25-.2.79.79,0,0,0,.39-.74v-.19Z"/><polygon class="cls-1" points="121.09 43.39 120.45 45.11 120.26 45.63 120.17 45.89 120.13 45.98 120.1 45.89 120 45.63 119.8 45.1 119.13 43.39 118.43 43.39 119.7 46.6 120.57 46.6 121.85 43.39 121.74 43.39 121.09 43.39"/><path class="cls-1" d="M123.12,44.65a.94.94,0,0,1,.17-.63,1.25,1.25,0,0,1,.79-.15,1.47,1.47,0,0,1,.8.13.76.76,0,0,1,.16.58v.07Zm2.62.87h-.69v.17c0,.2-.06.3-.15.34a2.16,2.16,0,0,1-.81.09c-.45,0-.73-.07-.81-.18a1.3,1.3,0,0,1-.17-.8h2.63v-.31a1.57,1.57,0,0,0-.34-1.2,2.24,2.24,0,0,0-1.37-.29,1.88,1.88,0,0,0-1.3.33,1.92,1.92,0,0,0-.34,1.29,1.94,1.94,0,0,0,.34,1.35,2,2,0,0,0,1.38.34,2.93,2.93,0,0,0,1.25-.2.77.77,0,0,0,.38-.74v-.19Z"/><polygon class="cls-1" points="127.44 42.06 126.9 42.06 126.82 42.06 126.82 46.6 127.51 46.6 127.51 42.06 127.44 42.06"/><path class="cls-1" d="M131.11,46c-.08.1-.36.18-.84.17a1.22,1.22,0,0,1-.83-.17,1.92,1.92,0,0,1-.15-1,2,2,0,0,1,.15-1,1.3,1.3,0,0,1,.83-.16c.48,0,.77.07.84.16a1.75,1.75,0,0,1,.15,1,1.7,1.7,0,0,1-.15,1m-.84-2.61a2,2,0,0,0-1.36.32,2,2,0,0,0-.33,1.33,2,2,0,0,0,.33,1.34,3.07,3.07,0,0,0,2.73,0A2,2,0,0,0,132,45a2,2,0,0,0-.33-1.33,2,2,0,0,0-1.37-.32"/><path class="cls-1" d="M135.48,44.07a1.79,1.79,0,0,1,.17,1,1.48,1.48,0,0,1-.18.89,1,1,0,0,1-.74.2,1.06,1.06,0,0,1-.79-.21,1.43,1.43,0,0,1-.19-.89,1.65,1.65,0,0,1,.18-1,1,1,0,0,1,.78-.2,1,1,0,0,1,.77.2m-.63-.73a1.64,1.64,0,0,0-1.13.32v-.27H133v4.53h.69V46.34a1.71,1.71,0,0,0,1.14.31,1.55,1.55,0,0,0,1.15-.36,1.84,1.84,0,0,0,.33-1.25,2,2,0,0,0-.33-1.33,1.52,1.52,0,0,0-1.17-.37"/><path class="cls-1" d="M141.64,43.34a1.56,1.56,0,0,0-1.25.46c-.18-.32-.58-.46-1.15-.46a1.54,1.54,0,0,0-1.13.38v-.33h-.69V46.6h.69V44.79c0-.64.31-.91,1-.92.53,0,.73.16.73.51V46.6h.69V44.75a.9.9,0,0,1,.2-.7,1.17,1.17,0,0,1,.81-.18.87.87,0,0,1,.59.12c.09.07.14.23.14.49V46.6h.7V44.52a1.12,1.12,0,0,0-.35-.88,1.55,1.55,0,0,0-1-.3"/><path class="cls-1" d="M144.91,44.65a.9.9,0,0,1,.16-.63,1.31,1.31,0,0,1,.8-.15,1.38,1.38,0,0,1,.79.13c.1.07.17.26.17.58v.07Zm2.62.87h-.7v.17c0,.2-.05.3-.15.34a2.1,2.1,0,0,1-.8.09c-.45,0-.73-.07-.82-.18a1.3,1.3,0,0,1-.16-.8h2.63v-.31a1.57,1.57,0,0,0-.34-1.2,2.24,2.24,0,0,0-1.37-.29,1.88,1.88,0,0,0-1.3.33,1.87,1.87,0,0,0-.34,1.29,1.89,1.89,0,0,0,.34,1.35,2,2,0,0,0,1.38.34,2.76,2.76,0,0,0,1.25-.21.78.78,0,0,0,.38-.73v-.19Z"/><path class="cls-1" d="M150.43,43.34a1.61,1.61,0,0,0-1.16.33v-.28h-.67V46.6h.69V44.68c0-.55.32-.8,1.06-.81A1.12,1.12,0,0,1,151,44a.59.59,0,0,1,.15.48V46.6h.69V44.53a1.19,1.19,0,0,0-.3-.94,1.81,1.81,0,0,0-1.11-.25"/><path class="cls-1" d="M154.63,45.36l0,.23v.17c0,.25-.11.35-.44.36s-.43-.12-.44-.42V43.91h1.4v-.52h-1.4v-.76H153v.76h-.51v.52H153v1.9c0,.55.42.84,1.13.84a1.17,1.17,0,0,0,.81-.25,1,1,0,0,0,.29-.74v-.3Z"/></g></g></svg>