<svg xmlns="http://www.w3.org/2000/svg" viewBox="0 0 243.52 60.03"><defs><style>.cls-1,.cls-2{fill:#1e94d2;}.cls-2,.cls-3{fill-rule:evenodd;}.cls-3{fill:#a5ce3a;}</style></defs><g id="Layer_2" data-name="Layer 2"><g id="doi_tac" data-name="doi tac"><polygon class="cls-1" points="226.5 18.59 226.01 20.16 226 20.16 225.52 18.59 225.03 18.59 225.73 20.82 226.27 20.82 226.99 18.59 226.5 18.59"/><path class="cls-1" d="M227.36,19h-.43v-.37h.43Zm-.43.25h.43v1.61h-.43Z"/><path class="cls-2" d="M227.9,20.12c0,.28.15.41.39.41a.36.36,0,0,0,.34-.21H229a.71.71,0,0,1-.74.54.78.78,0,0,1-.8-.85.79.79,0,1,1,1.57.11Zm.71-.28c-.05-.23-.14-.34-.35-.34a.35.35,0,0,0-.36.34Z"/><path class="cls-2" d="M229.68,19.21H230v.29h-.32v.8c0,.15,0,.19.19.19l.13,0v.35l-.25,0c-.27,0-.5-.07-.5-.39V19.5H229v-.29h.26v-.48h.43Z"/><path class="cls-2" d="M230.06,19.21h.4v.22h0a.56.56,0,0,1,.48-.27c.46,0,.57.27.57.67v1h-.42v-.91c0-.27-.08-.4-.28-.4s-.34.13-.34.46v.85h-.42Z"/><path class="cls-2" d="M231.68,19.7c0-.41.39-.54.74-.54s.69.07.69.46v.84a.89.89,0,0,0,0,.36h-.43a1.24,1.24,0,0,1,0-.16.71.71,0,0,1-.52.2c-.3,0-.54-.15-.54-.48s.27-.45.54-.49.51,0,.51-.21-.13-.22-.28-.22a.25.25,0,0,0-.29.24Zm1,.33a.91.91,0,0,1-.36.09c-.13,0-.25.08-.25.24s.12.2.26.2a.32.32,0,0,0,.35-.37Z"/><path class="cls-2" d="M233.3,19.21h.41v.21h0a.56.56,0,0,1,.47-.26.46.46,0,0,1,.46.27.57.57,0,0,1,.47-.27.51.51,0,0,1,.57.58v1.08h-.42V19.9c0-.21,0-.39-.27-.39s-.29.21-.29.41v.9h-.43v-.91c0-.18,0-.4-.26-.4-.08,0-.29.06-.29.37v.94h-.43Z"/><polygon class="cls-2" points="237.63 20.82 237.09 20.82 236.39 18.59 236.88 18.59 237.36 20.16 237.37 20.16 237.86 18.59 238.35 18.59 237.63 20.82"/><path class="cls-2" d="M238.15,19.7c0-.41.38-.54.74-.54s.68.07.68.46v.84a.87.87,0,0,0,.06.36h-.44l0-.16a.71.71,0,0,1-.52.2c-.3,0-.54-.15-.54-.48s.27-.45.54-.49.5,0,.5-.21-.12-.22-.27-.22-.28.07-.29.24Zm1,.33a.81.81,0,0,1-.35.09c-.14,0-.26.08-.26.24s.12.2.26.2a.32.32,0,0,0,.35-.37Z"/><rect class="cls-1" x="239.77" y="18.59" width="0.43" height="2.22"/><path class="cls-2" d="M241.86,20.82h-.41v-.23h0a.56.56,0,0,1-.48.27c-.46,0-.57-.27-.57-.66v-1h.43v.91c0,.26.07.39.28.39s.33-.13.33-.46v-.84h.43Z"/><path class="cls-2" d="M242.39,20.12c0,.28.14.41.38.41a.37.37,0,0,0,.35-.21h.37a.7.7,0,0,1-.73.54A.78.78,0,0,1,242,20a.8.8,0,0,1,.8-.85.81.81,0,0,1,.76,1Zm.7-.28c0-.23-.13-.34-.34-.34a.34.34,0,0,0-.36.34Z"/><path class="cls-2" d="M225,11.17h4.71s1.43.15,1.43-1.17V7.64a1.44,1.44,0,0,1,1.58-1.49h-1.64V3.55L229.43,2,226.74,4.5l1.75,1.64H225Z"/><path class="cls-3" d="M231.52,0V4.4a1.17,1.17,0,0,0,1.26,1.33h2.53A1.47,1.47,0,0,1,236.9,7.2V5.67h2.79l1.62-1.5-2.69-2.52-1.7,1.58V0Z"/><path class="cls-2" d="M243.51,6.16h-4.66s-1.43-.14-1.43,1.17V9.69a1.44,1.44,0,0,1-1.58,1.49h1.64v2.6l1.65,1.53,2.68-2.52L240.1,11.2h3.41Z"/><path class="cls-3" d="M236.84,17.29V12.9a1.17,1.17,0,0,0-1.26-1.33h-2.52a1.44,1.44,0,0,1-1.54-1.47v1.53h-2.85L227.1,13.1l2.67,2.53,1.67-1.56v3.22Z"/><path class="cls-1" d="M24.63,4.28a5.23,5.23,0,0,1-5.24,5.31h0a5.17,5.17,0,0,0-5.32,5.22v13H24.68Z"/><path class="cls-1" d="M27.22,28.72H12.29a12.17,12.17,0,1,0,0,24.33A12.24,12.24,0,0,0,24.62,40.88q0-.41,0-.81H14v.81a1.76,1.76,0,1,1-1.75-1.73H27.22Z"/><path class="cls-1" d="M40.54,35.68l-.84,0V46.1h.83a1.74,1.74,0,1,1-1.77,1.74,1.48,1.48,0,0,1,0-.21V26.93a1.77,1.77,0,1,1,1.76,1.73H39.7v6.11l.85,0a13.53,13.53,0,0,1,7.17,2.06,12.07,12.07,0,0,0,5.16-9.88,12.36,12.36,0,0,0-24.7-.41h0v.41h0V48h0A12.37,12.37,0,1,0,40.54,35.68"/><path class="cls-1" d="M77.82,53.48v-2.4H80.9V34.53H71.08V50c0,.7.15.73.23.78a8,8,0,0,0,2.54.27h.87v2.4H63.16v-2.4h3.2V27.78c0-.68-.17-.74-.24-.78a7.88,7.88,0,0,0-2.54-.26h-.87v-2.5H74.29v2.5H71.08v5.12H80.9V27.79c0-.71-.16-.76-.23-.8a8.27,8.27,0,0,0-2.54-.25h-.88v-2.5H88.83v2.5h-3.2V50c0,.7.15.73.24.78a8.09,8.09,0,0,0,2.53.27h.88v2.4Z"/><path class="cls-1" d="M116.47,27.82a15.77,15.77,0,0,0-11-4.22A16,16,0,0,0,94.2,28,14.29,14.29,0,0,0,89.39,38.9,14,14,0,0,0,94,49.54a15.43,15.43,0,0,0,10.93,4.24h0a16.45,16.45,0,0,0,11.36-4.34,14.14,14.14,0,0,0,4.84-10.88,14,14,0,0,0-4.65-10.74m-.13,11.48a11.8,11.8,0,0,1-3.25,8.28A10.2,10.2,0,0,1,105.3,51a9.87,9.87,0,0,1-8-3.79,13.48,13.48,0,0,1-3.26-9.1,12.47,12.47,0,0,1,3-8.44,9.26,9.26,0,0,1,7.38-3.47A10.84,10.84,0,0,1,112.94,30a13.08,13.08,0,0,1,3.4,9Z"/><path class="cls-1" d="M148.38,50.74a6.26,6.26,0,0,1-1.4-.26,1.3,1.3,0,0,1-.65-.47c-.61-1.21-1.21-2.44-1.82-3.64L135.66,25l-.9-2h-2.18l-6.82,22.11L124,50.73h-2.47v2.38H132.8V50.74h-2.38a9.68,9.68,0,0,1-2-.34c-.36-.2-.41-.24-.45-.76a7.76,7.76,0,0,1,.23-1.42c.19-.73.3-1.28.38-1.57l3.57-11h3.25l6.22,15.13h-2.93v2.38h10.51v-2.3Zm-15.25-17.8.49-1.46.42,1.46Z"/><path class="cls-1" d="M175.54,35.92A14.26,14.26,0,0,0,170.36,33a6.54,6.54,0,0,0,.74-.64,4.41,4.41,0,0,0,1.2-3.06,4.29,4.29,0,0,0-3.15-4.07,17.83,17.83,0,0,0-6.06-.83H150.21v2.4h.88a11,11,0,0,1,1.86.12,2.18,2.18,0,0,1,.47.11c.1,0,.09.05.1,0s0,0,0,.08a5.44,5.44,0,0,1,.22,1.91V50.82h-3.25v2.3H164.1a18,18,0,0,0,10.34-2.78,9,9,0,0,0,4.26-7.76,8.78,8.78,0,0,0-3.16-6.66M158.46,27a14.79,14.79,0,0,1,1.52-.14c.78-.05,1.79-.06,3-.06a6.37,6.37,0,0,1,3.32.83c.93.56,1.18,1,1.19,1.57a2.18,2.18,0,0,1-.79,1.87,6.61,6.61,0,0,1-3.95.9h-4.31ZM171,48.29a11.67,11.67,0,0,1-7.68,2.53q-1.44,0-3-.12a15,15,0,0,1-1.9-.27V34.54a59.74,59.74,0,0,1,6.69.27,15.73,15.73,0,0,1,3.89,1,9.56,9.56,0,0,1,3.71,2.85A6.06,6.06,0,0,1,174,42.43a7.29,7.29,0,0,1-3,5.86"/><path class="cls-1" d="M180.1,53.12V50.74h3.14V27.91c0-.69-.15-.72-.23-.77a8,8,0,0,0-2.48-.25h-.88V24.41h11.28v2.48h-3V49.72c0,.71.16.74.21.76a7.61,7.61,0,0,0,2.48.26h.88v2.38Z"/><path class="cls-1" d="M213.09,54.53h-1.46l-.26-.42-.65-1.06-11.6-18.81L199,48.49c0,1,.29,1.51.72,1.8a4.9,4.9,0,0,0,2.43.45h.87v2.38H193V50.74h2.71V29.13c0-1.1-.28-1.56-.57-1.75a4.62,4.62,0,0,0-2.46-.49h-.88V24.41h6.37l.25.42.54.89,11.59,18.87.1-15.63a1.81,1.81,0,0,0-.63-1.5,2.88,2.88,0,0,0-2-.57h-.88V24.41h9.42v2.48H214V54.53Z"/><path class="cls-1" d="M232.24,53.12V50.74h3V34.53h-9.61V49.72c0,.68.17.73.23.76a7.77,7.77,0,0,0,2.47.26h.88v2.38H217.87V50.74H221V27.91c0-.68-.15-.72-.24-.77a7.8,7.8,0,0,0-2.47-.25h-.87V24.41H228.8v2.48h-3.13v5h9.61v-4c0-.69-.15-.74-.23-.78a8.3,8.3,0,0,0-2.48-.24h-.88V24.41h11.4v2.48H240V49.72c0,.7.15.73.21.76a8,8,0,0,0,2.48.26h.88v2.38Z"/></g></g></svg>