<svg xmlns="http://www.w3.org/2000/svg" viewBox="0 0 178.4 65.79"><defs><style>.cls-1{fill:#e31f26;}.cls-2{fill:#74b743;}.cls-3{fill:#0061af;}</style></defs><g id="Layer_2" data-name="Layer 2"><g id="doi_tac" data-name="doi tac"><path class="cls-1" d="M66.84,55.87A22.27,22.27,0,1,1,74,23.13l12.31-8.75A32.89,32.89,0,1,0,71,63.57Z"/><path class="cls-2" d="M79.58,4.15s8.84,1.49,12,9c0,0,3.79,7.78-6.57,18.12,0,0-7.34,7.37-15,10.81,0,0,13.43-6.6,20.21-12.65,0,0,10.57-8,9.63-16.56,0,0-1.08-9.36-20.23-8.74"/><path class="cls-2" d="M13.47,42c-2.29-6.18,1.34-13.79,8.88-20.68C7,30.25-2.15,40.54.44,47.71c3.34,9.24,25,10.06,49.78,2.38C32.4,54.29,16.9,51.25,13.47,42"/><path class="cls-1" d="M178.39,40.58a2,2,0,0,1-1.78,1.8A2.08,2.08,0,0,1,174.36,41a2.1,2.1,0,0,1,1.2-2.66,2.08,2.08,0,0,1,2.68,1.07,3,3,0,0,1,.14.49,3.91,3.91,0,0,1,0,.68m-.29-.28a1.77,1.77,0,1,0-1.77,1.77,1.77,1.77,0,0,0,1.77-1.77"/><path class="cls-1" d="M177,40.31c.4.35.17.81.34,1.21H177c0-.18,0-.38-.05-.57,0-.37-.14-.48-.51-.5h-.59l-.18,0v1l-.3,0V39.11a4.43,4.43,0,0,1,1.5,0,.64.64,0,0,1,.34.94,2,2,0,0,1-.21.25m-1.33-.15a8.25,8.25,0,0,0,1,0c.21,0,.31-.2.29-.44s-.11-.36-.32-.38-.64,0-1,0Z"/><path class="cls-3" d="M91.4,42.37a4.37,4.37,0,0,1,3.42,1.5,5.49,5.49,0,0,1,1.34,3.77A8.71,8.71,0,0,1,96.05,49a8.16,8.16,0,0,1-2.63,4.6,6.62,6.62,0,0,1-4.52,1.9,4.56,4.56,0,0,1-3.46-1.45,5.14,5.14,0,0,1-1.37-3.68,5.51,5.51,0,0,1,.07-.75c0-.29.08-.5.11-.65A8.16,8.16,0,0,1,86.8,44.3a6.54,6.54,0,0,1,4.53-1.93ZM91,44.63A4.28,4.28,0,0,0,88,45.87a5.53,5.53,0,0,0-1.71,3.05c0,.15,0,.32-.07.51s0,.31,0,.34a3.69,3.69,0,0,0,.88,2.5,2.84,2.84,0,0,0,2.24,1h0A4.14,4.14,0,0,0,92.24,52a5.68,5.68,0,0,0,1.73-3c0-.2,0-.36,0-.47s0-.24,0-.41a3.64,3.64,0,0,0-.85-2.44,2.79,2.79,0,0,0-2.2-1"/><path class="cls-3" d="M145.42,42.37a4.37,4.37,0,0,1,3.42,1.5,5.44,5.44,0,0,1,1.34,3.77,8.71,8.71,0,0,1-.1,1.36,8.23,8.23,0,0,1-2.64,4.6,6.62,6.62,0,0,1-4.52,1.9,4.52,4.52,0,0,1-3.45-1.45,5.1,5.1,0,0,1-1.37-3.68,4.27,4.27,0,0,1,.07-.75c0-.29.08-.5.1-.65a8.12,8.12,0,0,1,2.56-4.67,6.5,6.5,0,0,1,4.52-1.93ZM145,44.63a4.28,4.28,0,0,0-2.95,1.24,5.51,5.51,0,0,0-1.7,3.05c0,.15-.05.32-.07.51a3.38,3.38,0,0,0,0,.34,3.69,3.69,0,0,0,.88,2.5,2.86,2.86,0,0,0,2.24,1h0a4.12,4.12,0,0,0,2.86-1.3,5.68,5.68,0,0,0,1.73-3c0-.2,0-.36,0-.47s0-.24,0-.41a3.59,3.59,0,0,0-.85-2.44,2.78,2.78,0,0,0-2.2-1"/><path class="cls-3" d="M133.15,51.77h2.72a8.07,8.07,0,0,1-2.94,2.7,7.45,7.45,0,0,1-3.7,1A5.12,5.12,0,0,1,125.45,54,5,5,0,0,1,124,50.31a5.8,5.8,0,0,1,.17-1.39,8.06,8.06,0,0,1,2.87-4.6,7.61,7.61,0,0,1,5-1.93,5.6,5.6,0,0,1,3.37,1,4.31,4.31,0,0,1,1.77,2.81h-2.66a3.22,3.22,0,0,0-1.23-1.14,3.66,3.66,0,0,0-1.73-.43,4.86,4.86,0,0,0-3.2,1.27A5.29,5.29,0,0,0,126.44,49c0,.14,0,.31-.07.51s0,.3,0,.34a3.35,3.35,0,0,0,1,2.4,3.14,3.14,0,0,0,2.39,1,5.3,5.3,0,0,0,3.47-1.46"/><path class="cls-3" d="M79.44,51.76h2.73a8.09,8.09,0,0,1-2.94,2.71,7.48,7.48,0,0,1-3.7,1A5.13,5.13,0,0,1,71.73,54a5,5,0,0,1-1.49-3.71,6.37,6.37,0,0,1,.17-1.4,8.07,8.07,0,0,1,2.88-4.6,7.56,7.56,0,0,1,5-1.93,5.56,5.56,0,0,1,3.38,1,4.31,4.31,0,0,1,1.77,2.81H80.74a3.18,3.18,0,0,0-1.24-1.14,3.49,3.49,0,0,0-1.72-.43,4.83,4.83,0,0,0-3.21,1.27,5.29,5.29,0,0,0-1.84,3c0,.15,0,.32-.07.51s0,.3,0,.34a3.35,3.35,0,0,0,1,2.41,3.15,3.15,0,0,0,2.39,1,5.25,5.25,0,0,0,3.47-1.47"/><polygon class="cls-3" points="112.37 49.79 116.98 49.79 117.47 47.66 112.82 47.66 112.37 49.79"/><polygon class="cls-3" points="109.79 42.4 106.99 55.51 116.25 55.51 116.73 53.27 109.91 53.27 110.57 50.12 110.57 50.12 111.07 47.78 111.06 47.78 111.72 44.66 118.54 44.66 119.02 42.4 109.79 42.4"/><path class="cls-1" d="M130.6,56.44c-2.29,3.28-4.86,5.08-6.76,4.37-2.93-1.09-3.17-7.72-.54-14.81s7.15-12,10.09-10.87c1.75.65,2.54,3.27,2.34,6.8l2.38.21c.85-6-.16-10.73-3-11.77-4-1.5-10.22,5.17-13.83,14.89s-3.28,18.81.74,20.31c3.1,1.15,7.49-2.54,11-8.74Z"/><path class="cls-3" d="M108.11,42.43c-.16.79-.31,1.52-.47,2.29h-3.82c-.43,1.81-.79,3.61-1.18,5.39s-.77,3.59-1.16,5.4H99.13c.76-3.59,1.52-7.15,2.28-10.76H97.5c0-.14.44-1.91.53-2.31h10.08"/><polygon class="cls-3" points="150.7 55.5 153.5 42.39 156.23 42.39 159.63 51.95 161.69 42.39 164.1 42.39 161.33 55.5 158.64 55.5 155.17 45.97 153.15 55.5 150.7 55.5"/><path class="cls-3" d="M171.81,46h2.38l.07-.72a2.83,2.83,0,0,0-2.45-2.82c-2.5-.4-5.17.26-6.11,3a3.29,3.29,0,0,0,2.58,4.06c2.95.72,3.7,1.48,3,2.77-.4.9-3.89,1.73-4.5,0,0,0-.09-.14,0-.53h-2.44a2.89,2.89,0,0,0,1.1,3.14c1.71,1.23,5.23.65,6.59-.49s2.39-2.71,1.63-4.57-5.39-2-5.84-3.08a1.09,1.09,0,0,1-.08-.38c-.09-.67.73-2,3.08-1.69a1.22,1.22,0,0,1,.92,1.36"/></g></g></svg>