<svg xmlns="http://www.w3.org/2000/svg" viewBox="0 0 18.21 18.21"><defs><style>.cls-1{fill:#de6726;}</style></defs><g id="Layer_2" data-name="Layer 2"><g id="footer"><path class="cls-1" d="M11.28,18.21c-.23,0-.46-.07-.68-.12a6.78,6.78,0,0,1-1.82-.82A20.31,20.31,0,0,1,.43,8.41,3.92,3.92,0,0,1,0,7.07.38.38,0,0,0,0,7V6.19c0-.2.07-.41.12-.61A4.1,4.1,0,0,1,1.18,3.66c.25-.27.51-.53.77-.78a1,1,0,0,1,1.48,0c.94.93,1.87,1.87,2.81,2.81a1,1,0,0,1,0,1.47c-.36.38-.73.74-1.1,1.11A.74.74,0,0,0,5,9.35l.51.72a.37.37,0,0,1,0,.55A.38.38,0,0,1,5,10.5c-.2-.29-.41-.57-.6-.86a1.41,1.41,0,0,1,.19-1.78L5.68,6.71c.22-.21.22-.35,0-.57L3,3.43c-.22-.21-.36-.22-.57,0a10.68,10.68,0,0,0-1,1,3.35,3.35,0,0,0-.34,3.66,19.62,19.62,0,0,0,4.57,6,19,19,0,0,0,4.44,3,3.49,3.49,0,0,0,3.9-.61l.8-.79a.31.31,0,0,0,0-.51L12,12.48a.33.33,0,0,0-.53,0l-1.12,1.12a1.41,1.41,0,0,1-1.89.19c-.39-.27-.78-.56-1.16-.85a.36.36,0,0,1-.12-.53c.13-.18.34-.19.55,0,.38.28.75.56,1.14.82a.68.68,0,0,0,1-.08L11,12a1,1,0,0,1,1.53,0c.92.91,1.83,1.83,2.75,2.75a1,1,0,0,1,0,1.53c-.29.29-.57.59-.87.86A4.1,4.1,0,0,1,12,18.18l-.12,0Z"/><path class="cls-1" d="M18.21,8a1,1,0,0,1-.18.18c-.24.14-.5,0-.53-.33a10.31,10.31,0,0,0-.22-1.67A7,7,0,0,0,11.94.9,9.59,9.59,0,0,0,10.43.71C10.17.69,10,.57,10,.35s.16-.35.42-.35a7.86,7.86,0,0,1,7.62,6.31c.07.34.1.68.15,1Z"/><path class="cls-1" d="M16.08,7.68v.13a.37.37,0,0,1-.36.39c-.2,0-.33-.15-.36-.38a10.73,10.73,0,0,0-.21-1.4,5,5,0,0,0-4.34-3.55l-.39,0c-.25,0-.41-.15-.4-.37s.17-.35.43-.34a5.49,5.49,0,0,1,2.82.8A5.68,5.68,0,0,1,16.08,7.68Z"/><path class="cls-1" d="M10.43,4.28a3.58,3.58,0,0,1,3.5,3.46.48.48,0,0,1,0,.12.35.35,0,0,1-.36.34.36.36,0,0,1-.34-.35,5.55,5.55,0,0,0-.13-.8A2.83,2.83,0,0,0,10.48,5h-.16a.33.33,0,0,1-.3-.32.34.34,0,0,1,.25-.36A.6.6,0,0,1,10.43,4.28Z"/><path class="cls-1" d="M10.46,6.43a1.41,1.41,0,0,1,1.33,1.33c0,.25-.1.41-.31.44s-.36-.12-.4-.37a.71.71,0,0,0-.7-.7c-.25,0-.39-.18-.36-.4S10.2,6.41,10.46,6.43Z"/><path class="cls-1" d="M6.3,11.2a.34.34,0,0,1,.36.34.35.35,0,0,1-.35.37A.36.36,0,0,1,6,11.55.35.35,0,0,1,6.3,11.2Z"/></g></g></svg>