<svg xmlns="http://www.w3.org/2000/svg" viewBox="0 0 15.82 11.66"><defs><style>.cls-1{fill:#de6726;}</style></defs><g id="Layer_2" data-name="Layer 2"><g id="footer"><path class="cls-1" d="M15.82,10.43c0,.05,0,.1,0,.15a1.46,1.46,0,0,1-1.43,1.08H1.56a1.45,1.45,0,0,1-1.39-.77,1.42,1.42,0,0,1,.69-2A.19.19,0,0,0,1,8.68a10.15,10.15,0,0,1,.14-2.06,6.85,6.85,0,0,1,3-4.41,6.45,6.45,0,0,1,1.91-.86.2.2,0,0,0,.16-.18c0-.13,0-.26.08-.39A.93.93,0,0,1,7.14,0,11.9,11.9,0,0,1,8.72,0a.88.88,0,0,1,.8.7c0,.15.07.31.1.46a.17.17,0,0,0,.14.16,6.72,6.72,0,0,1,3.36,2.11A6.53,6.53,0,0,1,14.73,7a15.67,15.67,0,0,1,.09,1.69.24.24,0,0,0,.15.24,1.4,1.4,0,0,1,.82,1s0,0,0,.08ZM9.8,2a.28.28,0,0,1,0,.08c.19.86.38,1.73.56,2.59a.91.91,0,0,1,0,.23.3.3,0,0,1-.3.28c-.18,0-.31-.08-.35-.3L9.21,2.42C9.11,1.93,9,1.44,8.9,1A.32.32,0,0,0,8.6.66H7.22A.31.31,0,0,0,6.93.9c0,.06,0,.13,0,.19-.28,1.28-.55,2.56-.83,3.84a.32.32,0,0,1-.41.28.34.34,0,0,1-.22-.43c.19-.86.37-1.73.56-2.59a.57.57,0,0,0,0-.14l-.12,0A6.23,6.23,0,0,0,4.15,3,.26.26,0,0,0,4,3.22V6.4a.82.82,0,0,1,0,.22.32.32,0,0,1-.34.23.3.3,0,0,1-.28-.28,1.09,1.09,0,0,1,0-.18V3.87a1.49,1.49,0,0,0,0-.19,6.43,6.43,0,0,0-1.7,5.08H14.14a6.44,6.44,0,0,0-1.72-5.1V5.57c0,.32,0,.64,0,1a.31.31,0,0,1-.31.32.32.32,0,0,1-.33-.31.65.65,0,0,1,0-.14c0-1.06,0-2.12,0-3.18a.28.28,0,0,0-.08-.2A6.09,6.09,0,0,0,9.8,2ZM7.93,9.43H1.38a.77.77,0,0,0-.7.57.81.81,0,0,0,.32.86.94.94,0,0,0,.57.13H14.44a.79.79,0,0,0,.16-1.54,2,2,0,0,0-.34,0Z"/></g></g></svg>