<svg xmlns="http://www.w3.org/2000/svg" viewBox="0 0 17.47 17.47"><defs><style>.cls-1{fill:#de6726;}</style></defs><g id="Layer_2" data-name="Layer 2"><g id="footer"><path class="cls-1" d="M1.47,17.47a5.33,5.33,0,0,1-.6-.23A1.66,1.66,0,0,1,0,15.72V6a.54.54,0,0,1,.17-.41L1.7,4.1a.45.45,0,0,0,.15-.34c0-1.11,0-2.21,0-3.31C1.84.11,2,0,2.29,0H7.22a.35.35,0,0,1,.31.34.35.35,0,0,1-.3.34H2.53V7.51a.36.36,0,0,0,.09.24l6,6,.08.07.13-.12,6-6A.4.4,0,0,0,15,7.45c0-2.19,0-4.37,0-6.56V.68H10.33c-.25,0-.39-.11-.41-.31A.33.33,0,0,1,10.21,0h5c.34,0,.46.11.46.45,0,1.11,0,2.22,0,3.34a.36.36,0,0,0,.12.28l1.5,1.49.23.27V16s0,.07,0,.11a1.69,1.69,0,0,1-1.21,1.29l-.22.07ZM6,12.06,1.29,16.73a4.93,4.93,0,0,0,.54.05h14l.31-.08-4.65-4.65-.11.1L9,14.51c-.24.23-.4.23-.63,0l-.93-.92Zm6.11-.54,4.65,4.66a4.53,4.53,0,0,0,.06-.5c0-2.91,0-5.81,0-8.72,0,0,0-.1,0-.15ZM.68,6.83v6.1c0,.93,0,1.86,0,2.79a2.32,2.32,0,0,0,.07.46L5.4,11.54ZM1.83,7V5l-1,1Zm13.81-.06.94-.95L15.64,5Z"/><path class="cls-1" d="M9.66,7.46a1.59,1.59,0,0,1-1,.49,1.54,1.54,0,0,1-1.34-.62,2.36,2.36,0,0,1-.25-2.49,1.66,1.66,0,0,1,2.46-.63s0,0,0-.08a.34.34,0,1,1,.68,0V6.62c0,.12,0,.23,0,.34a.46.46,0,0,0,.62.45,1,1,0,0,0,.64-.62A2.76,2.76,0,0,0,9.81,3.08a2.9,2.9,0,0,0-3.12.64A2.82,2.82,0,0,0,5.87,6.8a2.92,2.92,0,0,0,2.4,2.11l.37,0c.24,0,.38.17.36.37s-.17.32-.41.31a3.72,3.72,0,1,1,3.78-4.54A3.27,3.27,0,0,1,12,7.3a1.51,1.51,0,0,1-1.28.82,1,1,0,0,1-1-.53Zm-.1-1.69a3.35,3.35,0,0,0-.12-.53.89.89,0,0,0-.75-.66A.93.93,0,0,0,7.78,5a1.64,1.64,0,0,0,.13,2,.81.81,0,0,0,1.3,0A1.79,1.79,0,0,0,9.56,5.77Z"/><path class="cls-1" d="M8.39.34a.34.34,0,1,1,.33.34A.34.34,0,0,1,8.39.34Z"/></g></g></svg>