<svg xmlns="http://www.w3.org/2000/svg" viewBox="0 0 66.31 66.27"><defs><style>.cls-1{fill:#fff;}</style></defs><g id="Layer_2" data-name="Layer 2"><g id="dich_vu" data-name="dich vu"><path class="cls-1" d="M60.6,51.12a21.67,21.67,0,0,0-4-.3c-.82,0-1.64,0-2.49,0V43.34c0-1-.37-1.36-1.38-1.36H44.49c-1,0-1.38.36-1.38,1.35,0,1.82,0,3.64,0,5.46v2H38.68c0-2.54,0-5,0-7.5,0-.91-.39-1.29-1.3-1.29H29c-.95,0-1.31.38-1.32,1.35v7.44H22.12c0-2.51,0-5,0-7.43,0-1-.36-1.36-1.37-1.36H12.6c-1.21,0-1.52.31-1.52,1.49,0,2.41,0,4.83,0,7.34-.38,0-.67,0-1,0A23.51,23.51,0,0,0,6,51,7.71,7.71,0,0,0,7.76,66.27q25.4,0,50.8,0a7.94,7.94,0,0,0,1.37-.13,7.71,7.71,0,0,0,6.36-7A7.62,7.62,0,0,0,60.6,51.12Zm-15.25-6.9h2.17v2.12h2.19v-2.1H51.9v6.53H45.35Zm-15.47,0h2.17v2.12h2.21V44.21h2.17v6.56H29.88Zm-16.56,0h2.14v2.12h2.21v-2.1h2.19v6.55H13.32ZM58.74,64.06H8a5.57,5.57,0,0,1-5.5-3.81A5.51,5.51,0,0,1,7.83,53C11.9,53,16,53,20,53H33.15q12.6,0,25.19,0a5.52,5.52,0,0,1,.4,11Z"/><path class="cls-1" d="M23.09,14.37c.4.09.79.21,1.25.33-.21.37-.41.7-.6,1a1.2,1.2,0,0,0,.2,1.72c.94.95,1.88,1.9,2.83,2.83a1.19,1.19,0,0,0,1.68.2l1-.59c.25.67.33,1.43.75,1.81s1.19.37,1.86.55c0,.53,0,1.12,0,1.72a.68.68,0,0,1-.45.73,2.81,2.81,0,0,0-1.72,2.7,5.52,5.52,0,0,1-1.35,4c-.25.31-.43.65-.66,1a1.23,1.23,0,0,0-.08,1.36c.7,1.4,1.39,2.8,2.1,4.19a1.12,1.12,0,1,0,2-1,15.79,15.79,0,0,0-1.12-2.21,2.15,2.15,0,0,1,.16-2.93,2.24,2.24,0,0,1,1.71-.92A2.84,2.84,0,0,1,36,32.8a1.17,1.17,0,0,1,0,.86c-.48,1.07-1,2.1-1.55,3.15-.4.8-.27,1.4.35,1.72s1.23.08,1.65-.75.77-1.51,1.14-2.28c1.41-2.92,1.5-2-.29-4.68a4.33,4.33,0,0,1-.89-2.92,3.22,3.22,0,0,0-1.86-3.27.73.73,0,0,1-.32-.44c0-.68,0-1.37,0-2,2-.22,2-.22,2.56-2.29l1.11.67a1.2,1.2,0,0,0,1.57-.18c1-1,2-2,3-3a1.15,1.15,0,0,0,.18-1.51c-.21-.38-.43-.75-.68-1.16.51-.13,1-.23,1.39-.36a1.09,1.09,0,0,0,.84-1.12V8.87a1.07,1.07,0,0,0-.85-1.11c-.43-.14-.87-.23-1.37-.36.21-.38.41-.71.6-1a1.21,1.21,0,0,0-.21-1.73c-.93-.95-1.87-1.9-2.83-2.83a1.19,1.19,0,0,0-1.67-.2l-1.06.63c-.13-.49-.24-.89-.34-1.29A1.13,1.13,0,0,0,35.23,0H31.09a1.13,1.13,0,0,0-1.24,1c-.1.41-.22.81-.35,1.28l-.94-.56a1.26,1.26,0,0,0-1.89.23L23.94,4.63a1.21,1.21,0,0,0-.2,1.73l.61,1-1.12.31c-.91.24-1.11.49-1.11,1.45,0,1.31,0,2.62,0,3.93A1.15,1.15,0,0,0,23.09,14.37ZM34.25,28.69H32.07c0-.73-.24-1.52.52-2a1.35,1.35,0,0,1,1.13,0C34.49,27.15,34.25,28,34.25,28.69Zm-9.89-19,1.82-.47a1.14,1.14,0,0,0,.76-1.89c-.31-.54-.63-1.06-.93-1.56.65-.65,1.26-1.27,1.89-1.92.55.33,1.09.67,1.65,1a1.11,1.11,0,0,0,1.8-.74c.17-.62.32-1.24.48-1.88H34.5c.16.62.3,1.24.47,1.86a1.12,1.12,0,0,0,1.79.77c.56-.31,1.11-.65,1.67-1L40.3,5.83c-.29.49-.64,1-1,1.63a1.13,1.13,0,0,0,.73,1.77c.61.17,1.24.31,1.9.47v2.68l-1.82.47a1.12,1.12,0,0,0-.79,1.82c.31.56.65,1.11,1,1.65L38.4,18.19c-.53-.32-1.1-.68-1.68-1a1.11,1.11,0,0,0-1.72.72c-.19.64-.33,1.29-.5,1.95H31.84c-.16-.61-.31-1.2-.47-1.79-.29-1.07-1-1.34-1.92-.78-.52.3-1,.61-1.54.92L26,16.26c.29-.49.64-1.05,1-1.63a1.11,1.11,0,0,0-.73-1.76c-.62-.18-1.25-.32-1.91-.49Z"/><path class="cls-1" d="M62.4,9.94a4,4,0,0,1,.69,0,1.07,1.07,0,0,1,1,1.07,1.05,1.05,0,0,1-.95,1.1,4,4,0,0,1-.69,0h-16v2.22h8.8c0,2.22,0,4.35,0,6.49,0,.18-.24.41-.43.52a2.9,2.9,0,0,0-1.72,2.7,5.61,5.61,0,0,1-1.38,4.1c-.23.28-.41.61-.62.91A1.25,1.25,0,0,0,51,30.45c.71,1.4,1.39,2.8,2.1,4.19a1.12,1.12,0,1,0,2-1,16.66,16.66,0,0,0-1.15-2.27,2.1,2.1,0,0,1,.14-2.81,2.29,2.29,0,0,1,1.82-1,2.88,2.88,0,0,1,3.29,1.85,1,1,0,0,1,.06,1c-.55,1-1.07,2.09-1.59,3.14a1.12,1.12,0,0,0,.4,1.66c.62.33,1.22.08,1.61-.69.49-1,1-1.93,1.45-2.89,1.05-2.13,1.11-1.73-.23-3.62a5.4,5.4,0,0,1-1.25-3.85,2.28,2.28,0,0,0-1.13-2.31c-1.13-.58-1.1-1.45-1-2.44,0-.62,0-1.24,0-1.86V14.44a.76.76,0,0,1,.21-.07c1.45,0,2.9,0,4.35,0a8.11,8.11,0,0,0,1.71-.08A3.3,3.3,0,0,0,63,7.74H47c-.19,0-.39,0-.6,0V9.94h16ZM57.46,25.38H55.29c0-.71-.26-1.48.47-1.94a1.31,1.31,0,0,1,1.08-.08C57.69,23.76,57.44,24.59,57.46,25.38Z"/><path class="cls-1" d="M3.47,14.36h5.4c0,2.23,0,4.37,0,6.5,0,.18-.24.41-.43.52a2.89,2.89,0,0,0-1.72,2.7,5.48,5.48,0,0,1-1.35,4c-.24.3-.42.65-.65,1a1.25,1.25,0,0,0-.09,1.36c.7,1.4,1.39,2.8,2.1,4.19a1.12,1.12,0,1,0,2-1,17.88,17.88,0,0,0-1.15-2.27,2.1,2.1,0,0,1,.14-2.81,2.29,2.29,0,0,1,1.82-1,2.88,2.88,0,0,1,3.29,1.84,1,1,0,0,1,.06,1c-.55,1-1.07,2.08-1.59,3.13-.36.75-.21,1.35.39,1.67s1.23.08,1.62-.69c.63-1.24,1.22-2.52,1.89-3.75a1.61,1.61,0,0,0-.15-2c-.16-.2-.27-.43-.43-.63a5.26,5.26,0,0,1-1.35-4A2.33,2.33,0,0,0,12,21.77c-1-.51-1-1.25-.95-2.13,0-.35,0-.69,0-1V14.34h8.66V12.15H4c-.21,0-.42,0-.62,0a1.1,1.1,0,1,1,0-2.2c.2,0,.41,0,.62,0H19.85V7.74H3.45a3.31,3.31,0,1,0,0,6.62ZM9.93,23.2c.85,0,1.21.66,1.11,2.16H8.9C8.79,23.89,9.11,23.24,9.93,23.2Z"/><path class="cls-1" d="M11.08,55.23a3.31,3.31,0,1,0,3.3,3.26A3.3,3.3,0,0,0,11.08,55.23Zm0,4.41a1.1,1.1,0,1,1,0-2.2,1.1,1.1,0,0,1,0,2.2Z"/><path class="cls-1" d="M22.13,55.23a3.31,3.31,0,1,0,3.3,3.27A3.29,3.29,0,0,0,22.13,55.23Zm0,4.41a1.1,1.1,0,1,1,1.12-1.08A1.15,1.15,0,0,1,22.1,59.64Z"/><path class="cls-1" d="M33.18,55.23a3.31,3.31,0,1,0,3.29,3.28A3.3,3.3,0,0,0,33.18,55.23Zm0,4.41a1.1,1.1,0,1,1,1.1-1.1A1.16,1.16,0,0,1,33.16,59.64Z"/><path class="cls-1" d="M44.22,55.23a3.31,3.31,0,1,0,3.3,3.27A3.3,3.3,0,0,0,44.22,55.23Zm0,4.41a1.1,1.1,0,1,1,0-2.2,1.16,1.16,0,0,1,1.09,1.11A1.14,1.14,0,0,1,44.2,59.64Z"/><path class="cls-1" d="M55.27,55.23a3.31,3.31,0,1,0,3.3,3.27A3.28,3.28,0,0,0,55.27,55.23Zm0,4.41a1.1,1.1,0,1,1,1.08-1.12A1.14,1.14,0,0,1,55.27,59.64Z"/><path class="cls-1" d="M33.17,15.46a4.42,4.42,0,1,0-4.42-4.41A4.39,4.39,0,0,0,33.17,15.46Zm0-6.62A2.27,2.27,0,0,1,35.37,11a2.21,2.21,0,1,1-2.22-2.19Z"/></g></g></svg>