<svg xmlns="http://www.w3.org/2000/svg" viewBox="0 0 67.37 67.27"><defs><style>.cls-1{fill:#fff;}</style></defs><g id="Layer_2" data-name="Layer 2"><g id="dich_vu" data-name="dich vu"><path class="cls-1" d="M45.66,27.13H43.47a19.89,19.89,0,0,1,1.42-8.69H43.41a2.12,2.12,0,0,1-2.14-2.15c0-.75,0-1.49,0-2.24a2.12,2.12,0,0,1,2.11-2.11q1.29,0,2.58,0a.71.71,0,0,0,.77-.46,10.9,10.9,0,0,1,10.65-6,10.67,10.67,0,0,1,9.75,9.05c.4,3.3.44,6.63-.91,9.8a14.2,14.2,0,0,1-6.11,6.85c-.59.34-.87.65-.72,1.41a6.23,6.23,0,0,0,1,2.71,12.74,12.74,0,0,1,2.5,7.53c.07,8,0,16.05,0,24.07,0,.11,0,.22,0,.37H44.53V58.64H39.09v8.63H8.87A8.64,8.64,0,0,1,0,58.45c0-8.54.06-17.09,0-25.63a8.89,8.89,0,0,1,7.8-8.93,1.63,1.63,0,0,0,.85-.42c.68-.63,1.32-1.3,2-2l3.91,2.76.8-4.67h6.19l.8,4.67,3.94-2.79c.67.69,1.29,1.38,2,2a1.59,1.59,0,0,0,1,.41c2.28,0,4.57,0,6.85,0h.81v.78c0,3.43,0,6.87,0,10.3a.71.71,0,0,0,.61.84c3.24.89,6.47,1.82,9.69,2.76a.81.81,0,0,0,.88-.24c.8-.69,1.66-1.3,2.49-2,.18-.15.42-.38.43-.59,0-1.39,0-2.79,0-4.23A5.63,5.63,0,0,1,45.66,27.13ZM36.9,41.23H8.64a8.52,8.52,0,0,1-5.89-2.36c-.15-.15-.31-.29-.56-.52v.73q0,9.59,0,19.18a6.55,6.55,0,0,0,6.87,6.85H17.4V54.23h4.35V43.45h8.68V54.23h2.13a4.4,4.4,0,0,1,1.29-3.06,4.51,4.51,0,0,1,3-1.29Zm9.85,8.68c1.48,0,2.94,0,4.4,0,.16,0,.37-.22.46-.39.5-.93,1-1.89,1.44-2.83L54.4,44l2,1c-1,2-1.93,3.84-2.87,5.74a2.29,2.29,0,0,1-2.27,1.38c-3.07,0-6.15,0-9.22,0h-.7v4.31l.3,0c3.32,0,6.64.06,10,0a7.91,7.91,0,0,0,6.7-3.83,15.31,15.31,0,0,0,2.41-10.79,11.89,11.89,0,0,0-1.36-4.2L52.84,43l-2.07-4.09C47.08,41.71,46.36,45.57,46.75,49.91ZM26.22,39a3,3,0,0,0-.32-.48,1.75,1.75,0,0,1-.34-2.33,1.1,1.1,0,0,1,.92-.71c1.31-.18,2.61-.43,3.9-.65V32.4c-1.07-.18-2.11-.43-3.16-.52a1.8,1.8,0,0,1-1.91-1.47,1.14,1.14,0,0,1,.15-1.09c.78-1.05,1.53-2.12,2.28-3.17l-1.8-1.76a31.09,31.09,0,0,0-2.58,1.87,1.8,1.8,0,0,1-2.28.29,1.08,1.08,0,0,1-.72-.91c-.18-1.31-.43-2.61-.65-3.91H17.23c-.18,1.11-.4,2.19-.53,3.29-.1.87-.34,1.48-1.32,1.73a1.32,1.32,0,0,1-1.33-.17c-1-.78-2.07-1.5-3.07-2.2L9.19,26.12c.63.88,1.2,1.81,1.9,2.62a1.8,1.8,0,0,1,.3,2.29,1.1,1.1,0,0,1-.91.72c-1.31.18-2.61.43-3.92.65v2.47c1.33.23,2.64.47,4,.66.47.06.64.29.87.68a1.73,1.73,0,0,1-.32,2.33,3.18,3.18,0,0,0-.33.49h6.71c-3.66-1.09-4.64-3.92-4.36-6.13a5.44,5.44,0,0,1,10.66-.61,5.35,5.35,0,0,1-.67,4.23A5.94,5.94,0,0,1,19.63,39Zm-6.64,26h17.3V58.62a4.29,4.29,0,0,1-3.4-1.77,1,1,0,0,0-.89-.44c-4.13,0-8.26,0-12.4,0-.19,0-.39,0-.61,0ZM56.46,18.44c-3,0-5.88,0-8.77,0a.78.78,0,0,0-.54.37A15.73,15.73,0,0,0,45.68,25h2.06c0,.2,0,.33,0,.46,0,2.72,1.23,3.88,4,3.88h3.58v2.18H53.23v3.65l4.17-1.21c-.3-2.11-.57-4.14-.9-6.17A1.56,1.56,0,0,1,57.05,26a4.64,4.64,0,0,0,1.17-1.21,2.11,2.11,0,0,0,.26-1.37c-.1-.55-.65-.69-1.18-.68h-.84ZM46.73,58.59v6.47h14V52.67l-.41.68a10.13,10.13,0,0,1-9.23,5.24ZM65.06,16.24a8.57,8.57,0,0,0-16-4.3h7.25a2.14,2.14,0,0,1,2.33,2.3v2ZM34.71,39.06V26c-1.34,0-2.62,0-3.9,0a.55.55,0,0,0-.41.17c-.83,1.13-1.64,2.28-2.53,3.52l4.68.8v6.19l-4.66.81c.34.49.61.91.92,1.29a.63.63,0,0,0,.44.22C31.05,39.07,32.86,39.06,34.71,39.06ZM58.62,18.47c0,.7,0,1.33,0,2a.62.62,0,0,0,.27.47,3.42,3.42,0,0,1,.61,5.77A2.07,2.07,0,0,0,59,29.17a11.51,11.51,0,0,0,6.06-10.7ZM28.22,45.63H23.93v8.58h4.29Zm-6.49-12a3.26,3.26,0,1,0-3.25,3.24A3.31,3.31,0,0,0,21.73,33.65ZM4.41,36.74V30.53l4.66-.79c-.72-1-1.39-1.91-2-2.85-.31-.47-.59-.46-1.05-.25a6.45,6.45,0,0,0-3.66,7.27,6.35,6.35,0,0,0,5,5,1,1,0,0,0,.8-.09,8.73,8.73,0,0,0,.94-1.27Zm41.8,3.79L37,37.89v1.19h2.11v3.64l5.61,1.6ZM56.42,14.15H43.48v2.09H56.42ZM44.5,46.55,39.13,45v4.85H44.5ZM39.08,52.1c-.84,0-1.63-.06-2.4,0a2.16,2.16,0,0,0-1.92,2,2.05,2.05,0,0,0,1.46,2.18,22.51,22.51,0,0,0,2.86.22ZM57.35,36.34l-.06-.12-4.66,1.42.93,1.86Z"/><path class="cls-1" d="M28.29,13h4.25v2.1H26.1V8.73H23.91v8.59H21.78V6.52h4.27V4.39h2.16V6.45a4,4,0,0,0,.55.06c1.88,0,3.76,0,5.63,0a.75.75,0,0,0,.78-.47,3.18,3.18,0,0,1,3.6-1.63,3.26,3.26,0,1,1-3.64,4.7.85.85,0,0,0-.57-.42c-2.07,0-4.15,0-6.27,0ZM38,8.67a1.12,1.12,0,0,0,1.06-1.1,1.08,1.08,0,1,0-2.15,0A1.13,1.13,0,0,0,38,8.67Z"/><path class="cls-1" d="M15.19,10.89v6.42H13.07V13.06c-.24,0-.43,0-.63,0C10.61,13,8.79,13,7,13a.79.79,0,0,0-.85.47,3.15,3.15,0,0,1-3.6,1.62,3.26,3.26,0,0,1,0-6.34,3.18,3.18,0,0,1,3.59,1.65.75.75,0,0,0,.79.45H15Zm-10.83,1a1.14,1.14,0,0,0-1.07-1.09A1.15,1.15,0,0,0,2.2,11.93,1.13,1.13,0,0,0,3.27,13,1.13,1.13,0,0,0,4.36,11.94Z"/><path class="cls-1" d="M19.56,17.34H17.39v-.73c0-3.23,0-6.46,0-9.69a.8.8,0,0,0-.48-.84,3.17,3.17,0,0,1-1.61-3.61,3.26,3.26,0,0,1,6.31-.06,3.17,3.17,0,0,1-1.54,3.64.89.89,0,0,0-.53.94q0,4.78,0,9.56Zm0-14.11a1.13,1.13,0,0,0-1.1-1.06,1.15,1.15,0,0,0-1.06,1.1,1.08,1.08,0,0,0,2.16,0Z"/><path class="cls-1" d="M8.74,8.63V4.37h2.11V6.5h4.33V8.63Z"/><path class="cls-1" d="M10.86.06V2.11H8.76v-2Z"/><path class="cls-1" d="M28.21,0V2.12h-2.1V0Z"/><path class="cls-1" d="M36.89,13.07v2.08H34.81V13.07Z"/><path class="cls-1" d="M8.74,47.7V45.61H19.5V47.7Z"/><path class="cls-1" d="M19.52,50v2.09H8.77V50Z"/><path class="cls-1" d="M15.18,54.3v2.09H8.76V54.3Z"/><path class="cls-1" d="M15.18,60.73H8.76V58.64h6.42Z"/><path class="cls-1" d="M23.86,60.8v2.08H21.78V60.8Z"/><path class="cls-1" d="M26.1,62.88V60.8h2.08v2.08Z"/><path class="cls-1" d="M30.44,62.88V60.8h2.08v2.08Z"/><path class="cls-1" d="M48.83,20.62a1.08,1.08,0,1,1,0,2.16,1.08,1.08,0,0,1,0-2.16Z"/></g></g></svg>