<svg xmlns="http://www.w3.org/2000/svg" viewBox="0 0 64.99 69.57"><defs><style>.cls-1{fill:#fff;}</style></defs><g id="Layer_2" data-name="Layer 2"><g id="dich_vu" data-name="dich vu"><path class="cls-1" d="M13.28,49.56c-.36,1-.73,2.06-1.09,3.1C11,56,9.82,59.38,8.61,62.74A1,1,0,0,0,8.88,64c.76.67,1.44,1.42,2.16,2.14a2.7,2.7,0,0,1,.48,2.73,1.54,1.54,0,0,1-1.07.67c-3.07,0-6.13,0-9.2,0-.79,0-1.12-.47-1.2-1.32-.25-3,.48-5.79,1.07-8.65Q3.46,48.38,5.8,37.17a3.51,3.51,0,0,0,.06-.79V27.25a6,6,0,0,1,6.35-6.38h.61V18.19c0-.62,0-1.25,0-1.88a3.48,3.48,0,0,1,6.94-.41c0,.1,0,.19,0,.32H22v2.3H19.82v2.4a14.17,14.17,0,0,1,2.06,0,5.86,5.86,0,0,1,3.89,2.41c1.9,2.47,3.83,4.91,5.72,7.39a1.3,1.3,0,0,0,1.21.58c1,0,2,0,3,0a4.64,4.64,0,0,1,4.92,4.52c1.27.35,1.55.23,2.2-.84.77-1.29,1.56-2.56,2.3-3.86a1.65,1.65,0,0,1,1.74-1c.59.06,1.2,0,1.83,0V17.39H48c-2,0-4,0-5.94,0a1.37,1.37,0,0,1-1.37-.85c-.61-1.25-1.25-2.48-1.87-3.73h-.19c-.09.65-.23,1.29-.26,1.94a19.91,19.91,0,0,0,0,2.89,7.6,7.6,0,0,1-1.2,4.74,1.36,1.36,0,0,1-1.33.79c-.67,0-1.35,0-2.1,0v5.75H31.4V23.19c-.77,0-1.46,0-2.15,0a1.37,1.37,0,0,1-1.34-.78,7.52,7.52,0,0,1-1.19-4.73,20.41,20.41,0,0,0-1-7.76A3.25,3.25,0,0,1,25.58,9q0-3.76,0-7.54C25.57.39,26,0,27,0H46.2c1,0,1.39.39,1.39,1.4,0,2,0,4,0,5.95v.77H58.88c1.1,0,1.47.37,1.47,1.48,0,8.4,0,16.81,0,25.21A2.18,2.18,0,0,0,60.8,36c1.22,1.59,2.51,3.13,3.72,4.72A2.16,2.16,0,0,1,65,42c0,8.72,0,17.44,0,26.16,0,1-.39,1.41-1.39,1.41h-32c-1.05,0-1.43-.38-1.43-1.44V64.06c0-1.06.38-1.44,1.43-1.44,2.15,0,4.3,0,6.45,0A1.1,1.1,0,0,0,39.21,62c.82-1.42,1.7-2.81,2.51-4.23a1.64,1.64,0,0,1,1.63-.94c1.76.05,3.53,0,5.35,0V51H48c-2.73,0-5.46,0-8.19,0a2.17,2.17,0,0,1-1.32-.55C37.19,49.28,36,48,34.78,46.84a1.66,1.66,0,0,0-1.05-.44q-3.73-.06-7.46,0a3.32,3.32,0,0,1-1.92-.51c-.7-.44-1.44-.83-2.26-1.3v.76q0,8.58,0,17.17a1.15,1.15,0,0,0,.54,1.08c1.16.82,2.29,1.69,3.42,2.55A2.54,2.54,0,0,1,26.53,69a1.5,1.5,0,0,1-1,.52c-3,0-6.08,0-9.13,0a1.11,1.11,0,0,1-1.23-1.27c.12-4.39-.7-8.7-1.12-13-.18-1.89-.41-3.78-.61-5.67Zm49.35,13a1.57,1.57,0,0,0,0-.25q0-9.89,0-19.77a1.09,1.09,0,0,0-.23-.65c-1.16-1.48-2.33-3-3.54-4.41a1.2,1.2,0,0,0-.84-.36c-2.15,0-4.3,0-6.45,0-.16,0-.32,0-.49,0V56.82c1.45,0,2.85,0,4.24,0a1.59,1.59,0,0,1,1.58.91c.53,1,1.13,1.91,1.7,2.86,1.29,2.15,1.29,2.15,3.8,2Zm-59.9.86A23.41,23.41,0,0,1,5.2,63c.75-.07,1-.44,1.27-1.11,2.08-6,4.21-11.94,6.31-17.91.22-.64.57-1.09,1.29-1s1,.54,1.08,1.23c.14,1.37.31,2.73.46,4.1l1.26,11.28c.14,1.31.3,2.61.45,3.94l2.41-.6a2.9,2.9,0,0,0,0-.38c0-6.25,0-12.51,0-18.76a1,1,0,0,0-.43-.7c-.73-.47-1.49-.89-2.26-1.31a1.34,1.34,0,0,1-.77-1.35c0-.68,0-1.37,0-2.1-2.7,0-5.31,0-7.91,0-.18,0-.45.31-.5.51Q5.9,48.17,4,57.53C3.56,59.44,3.16,61.35,2.73,63.42Zm46-25.11h-30a1.69,1.69,0,0,0,1,2.26c1.92,1,3.73,2.12,5.61,3.15a2.62,2.62,0,0,0,1.22.33c7.15,0,14.29,0,21.44,0h.73Zm2.34-3.57H58V11.68l-.64.44c-1.93,1.45-3.85,2.9-5.79,4.33a1.11,1.11,0,0,0-.51,1c0,5.26,0,10.51,0,15.77ZM45.25,2.36H27.94V8.08H45.25ZM27.15,29c-1.21-1.55-2.32-3-3.51-4.46a3.27,3.27,0,0,0-1.51-1,6,6,0,0,0-2.56-.15c-.3.06-.44,1-.66,1.51a.14.14,0,0,1,0,.06,2.77,2.77,0,0,1-5.19,0,8,8,0,0,1-.4-1.16c-.09-.4-.28-.58-.7-.53-.26,0-.53,0-.8,0a3.69,3.69,0,0,0-3.25,2.18,3.32,3.32,0,0,0,.39,3.75,44.39,44.39,0,0,0,3.33,3.15l2.34-2.35-1.44-1.15L14.81,27c1.18,1.17,2.39,2.25,3.44,3.48a2.59,2.59,0,0,0,2.68.76,19.86,19.86,0,0,1,0-2.19,1.75,1.75,0,0,1,.51-1c.46-.41,1.1-.26,1.59.29.65.73,1.28,1.49,1.93,2.24ZM62.64,65H32.58v2.23H62.64ZM40.24,10.47c.74,1.5,1.44,2.92,2.18,4.32.08.17.42.27.65.27,1.4,0,2.81-.09,4.2,0a5.17,5.17,0,0,0,4.07-1.36c1.32-1.14,2.77-2.12,4.3-3.27ZM57.11,62.58c-.69-1.15-1.32-2.22-2-3.27-.08-.13-.37-.17-.57-.17H44.13c-.2,0-.49,0-.58.17-.66,1-1.29,2.12-2,3.27ZM29.05,15.08c0,1.44-.06,2.81,0,4.18a1.61,1.61,0,0,0,1.81,1.61H34.2A1.66,1.66,0,0,0,36,19.11c0-.51,0-1,0-1.53v-2.5ZM38.28,36a2.29,2.29,0,0,0-2.41-2.32c-1.4,0-2.8,0-4.2,0a1.58,1.58,0,0,1-1.46-.74c-.51-.69-1.06-1.36-1.63-2.09l-2.06,1.55c1,1.15,1.9,2.24,2.85,3.3a1.09,1.09,0,0,0,.75.28c1.44,0,2.89,0,4.34,0Zm-12.73,0a2.35,2.35,0,0,0-2.47-2.31,29.5,29.5,0,0,0-3.12,0,3.16,3.16,0,0,1-3.14-1.3,2.28,2.28,0,0,0-.41-.39L14,34.32a3.67,3.67,0,0,0,2.78,1.6C19.71,36,22.61,35.93,25.55,35.93ZM37.64,46.41c.8.77,1.44,1.43,2.12,2a1.28,1.28,0,0,0,.77.24c1.77,0,3.53,0,5.29,0h2.9V46.41ZM36.8,10.46H28.25l.54,2.25h7.47ZM8.63,67.22l.12-.15c-.63-.6-1.24-1.2-1.88-1.77a.88.88,0,0,0-.63-.17c-1,.18-2,.46-3,.57-.79.09-1,.44-.9,1.16a3.29,3.29,0,0,1,0,.36ZM48.74,32.46a8.13,8.13,0,0,0-.87,0c-.29,0-.72,0-.84.19-.68,1-1.3,2.11-2,3.24h3.68ZM17.47,67.2h6.07l-2.65-2a.66.66,0,0,0-.39-.12l-3,.77ZM8.22,32v3.84h3.86Zm6.92-13.46c0,.83-.25,1.71.66,2.11A1.4,1.4,0,0,0,17,20.57c.7-.49.47-1.27.43-2Zm2.29-2.37c-.11-.73-.5-1.13-1.16-1.11a1.06,1.06,0,0,0-1.1,1.11Zm-1.72,7-.18.2.81.93.75-1.13Z"/></g></g></svg>