<svg xmlns="http://www.w3.org/2000/svg" viewBox="0 0 64.59 66.96"><defs><style>.cls-1{fill:#fff;}</style></defs><g id="Layer_2" data-name="Layer 2"><g id="dich_vu" data-name="dich vu"><path class="cls-1" d="M.93,67A1.64,1.64,0,0,1,0,65.26c.05-1.59.06-3.19,0-4.77a38,38,0,0,1,.88-7.05C1.57,49,2.31,44.6,3,40.18a3.54,3.54,0,0,1,.08-.45,4,4,0,0,0-.68-3.63A8.59,8.59,0,0,1,8.57,22.76a1.49,1.49,0,0,0,.75-.44L25.05,6.72l1.16-1.15a9.73,9.73,0,0,0,1.92-2.51A5.68,5.68,0,0,1,36.25.89a2.08,2.08,0,0,0,1,.29q9.34,0,18.69,0c1.24,0,1.7.45,1.7,1.68V7.72c0,1.22-.48,1.68-1.71,1.69H53.49c0,1.1,0,2.14,0,3.18a24.86,24.86,0,0,1-.11,4.89,20.09,20.09,0,0,1-1.89,4.42,5.44,5.44,0,0,0-.61,2.82c.06.87,0,1.74,0,2.61a1.29,1.29,0,0,1-1.32,1.45,1.32,1.32,0,0,1-1.3-1.49c0-1.17,0-2.35,0-3.53a2.61,2.61,0,0,0-.23-1c-.7-1.54-1.45-3.06-2.14-4.61a4.14,4.14,0,0,1-.34-1.5c0-2.16,0-4.31,0-6.47V9.45c-.25,0-.44,0-.63,0-2.24,0-4.49,0-6.73,0a1.88,1.88,0,0,0-.9.36c-.41.27-.79.61-1.18.92a14.24,14.24,0,0,0-1.6,1.39q-7.93,9.28-15.82,18.62a1.68,1.68,0,0,0-.39.91A9.25,9.25,0,0,1,16.18,37a1.06,1.06,0,0,0-.17.76Q18,48.12,20,58.46a4,4,0,0,1,.05.78c0,2,0,4,0,6A1.67,1.67,0,0,1,19.11,67ZM8.39,40l-2.53-.75-3,18.29H17.1l-3.52-18.4L11,40v6.31a1.25,1.25,0,0,1-.88,1.25,1.16,1.16,0,0,1-1.41-.4,2,2,0,0,1-.31-1C8.37,44.07,8.39,42,8.39,40ZM27.68,7.73,12.55,23.19c3,1.65,3,1.65,5.06,4.69l14-16.52C29.62,10.57,28.91,9.92,27.68,7.73ZM15.6,31.35a6,6,0,1,0-12,0,6,6,0,0,0,12,0ZM2.65,64.3H17.36v-4H2.65ZM38.73,3.84,39,6.7H55V3.84ZM30.06,5.76a3.11,3.11,0,1,0,3.1-3.13A3.14,3.14,0,0,0,30.06,5.76ZM48.18,9.44c0,1.9.12,3.73,0,5.54s.62,3.18,1.37,4.69a1.5,1.5,0,0,0,.19-.23,8.53,8.53,0,0,0,1.19-4.77,37.72,37.72,0,0,1,0-4V9.44Z"/><path class="cls-1" d="M38.59,67a1.85,1.85,0,0,1-.77-2q.91-7.65,1.79-15.3c.21-1.82.41-3.63.62-5.55H36.37a1.32,1.32,0,1,1,0-2.61h7.74v-.72c0-2.12,0-4.23,0-6.34a1.36,1.36,0,0,1,1.51-1.55h8.24c1,0,1.5.52,1.5,1.55,0,2.09,0,4.18,0,6.27v.79H63c1,0,1.62.49,1.63,1.29S64,44.08,63,44.08H59.21c.12,1.1.22,2.13.34,3.16l1.14,9.86c.3,2.66.58,5.32.93,8a1.77,1.77,0,0,1-.8,1.89ZM42.9,44.1,40.57,64.32h18.3c-.78-6.77-1.56-13.49-2.33-20.22Zm3.84-2.68h6V35.55h-6Z"/><path class="cls-1" d="M11,52.22a1.3,1.3,0,1,1-1.23-1.33A1.28,1.28,0,0,1,11,52.22Z"/><path class="cls-1" d="M9.59,27.34a4,4,0,0,1,4,4,4,4,0,0,1-4,4.08,4.1,4.1,0,0,1-4-4A4.05,4.05,0,0,1,9.59,27.34Zm0,5.39A1.36,1.36,0,0,0,11,31.32,1.42,1.42,0,0,0,9.62,30a1.38,1.38,0,0,0-1.39,1.4A1.32,1.32,0,0,0,9.62,32.73Z"/></g></g></svg>