<svg xmlns="http://www.w3.org/2000/svg" viewBox="0 0 67.37 67.35"><defs><style>.cls-1{fill:#fff;}</style></defs><g id="Layer_2" data-name="Layer 2"><g id="dich_vu" data-name="dich vu"><path class="cls-1" d="M29.45,41.07c.51.51,1.11,1.12,1.7,1.74a1.35,1.35,0,0,0,1.65.4,1.42,1.42,0,0,0,.92-1.44c0-.86,0-1.71,0-2.62h2.12V32.62H28.32v-13h4.31V18.11c0-1.17,0-2.35,0-3.53,0-1,0-1.76-1-2.41a2.75,2.75,0,0,1-1-3.39,3.23,3.23,0,0,1,5.9-.6.9.9,0,0,0,.94.53c2.49,0,5,0,7.48,0h.71V.06H65.19V17.38H60.93v4.36h6.44v15.2H63.09c0,.27,0,.47,0,.66,0,4,0,8,0,12a.86.86,0,0,0,.51.89,3.2,3.2,0,0,1,1.65,3.37,3.36,3.36,0,0,1-2.66,2.67,3.22,3.22,0,0,1-3.39-1.62.82.82,0,0,0-.87-.53c-2.18,0-4.35,0-6.52,0h-.65v2.17c-.87,0-1.7,0-2.53,0a1.46,1.46,0,0,0-1.56.93,1.4,1.4,0,0,0,.45,1.7c.61.57,1.2,1.16,1.78,1.72l-4.71,4.65-1.74-1.8a1.36,1.36,0,0,0-1.65-.41,1.45,1.45,0,0,0-.93,1.5c0,.84,0,1.67,0,2.54H33.72V65c0-.92-.26-1.36-.92-1.63a1.42,1.42,0,0,0-1.75.49c-.55.6-1.12,1.18-1.74,1.81l-3.84-3.86c-1-1-1-1-2.61-.82v6.4H4.37v-.72c0-8.26,0-16.53,0-24.79a5.61,5.61,0,0,1,3-5.39.69.69,0,0,0,.29-.52c0-1.52,0-3,0-4.55a.92.92,0,0,0-.38-.63c-.9-.68-1.84-1.31-2.75-2A11.19,11.19,0,0,1,.36,17a1.61,1.61,0,0,0,0-.58A14.61,14.61,0,0,1,0,14.57,18.76,18.76,0,0,1,.7,8,11.81,11.81,0,0,1,23.39,9.12l.36,1.7c1.77.26,2.35.95,2.35,2.73,0,.56,0,1.13,0,1.7a2.13,2.13,0,0,1-2.16,2.14H21.57c.13.26.22.45.32.63A18.35,18.35,0,0,1,24,26.3a.69.69,0,0,1-.6.79c-.63.17-1.23.46-1.87.6s-.89.44-.83,1.11a7.22,7.22,0,0,1,0,2,4.63,4.63,0,0,1-3.68,3.88l-.48.15a6.64,6.64,0,0,0,1.35,3.44A20.65,20.65,0,0,1,22.68,50c1.06,0,2.08,0,3.09,0a1.46,1.46,0,0,0,.88-2.42c-.65-.64-1.3-1.26-1.91-1.85ZM51.09,52.18c2.56,0,5,0,7.49,0,.16,0,.33-.21.48-.35a11.74,11.74,0,0,1,1.36-1.37.91.91,0,0,0,.48-.85c0-4,0-8,0-12,0-.19,0-.39,0-.63H52.24V21.72h6.44V17.38h-13V10.87c-2.88,0-5.68,0-8.49,0-.17,0-.36.18-.5.32-.4.42-.7,1-1.18,1.27a1.22,1.22,0,0,0-.68,1.35c0,.72,0,1.45,0,2.17v3.57c1.63,0,3.18,0,4.74,0a1.44,1.44,0,0,0,.91-.41c.77-.79,1.48-1.63,2.24-2.48l1.63,1.46c-.86,1-1.67,1.91-2.52,2.82a1.71,1.71,0,0,0-.49,1.26c0,3.22,0,6.43,0,9.65v.79H38.1v6.51h2.13c0,.91,0,1.74,0,2.58a1.43,1.43,0,0,0,.88,1.46,1.39,1.39,0,0,0,1.71-.39c.59-.62,1.2-1.22,1.76-1.79l4.68,4.65c-.59.57-1.18,1.16-1.79,1.73a1.39,1.39,0,0,0-.44,1.7,1.45,1.45,0,0,0,1.51.92c.83,0,1.67,0,2.55,0Zm-23.93,0H21.27A7.51,7.51,0,0,1,13.89,46c-.33-1.73-.57-3.48-.91-5.21a3.18,3.18,0,0,0-3.69-2.68A3.26,3.26,0,0,0,6.61,42c.3,2,.62,3.92.86,5.9A12.05,12.05,0,0,0,19.62,58.7h6.86l.68,0Zm20.73-50v13H63v-13ZM18.36,30.4c-2.62.27-4.89-.18-6.28-2.74l2-1c1.06,1.85,2.76,1.61,4.46,1.54a10.36,10.36,0,0,0,0-1.25c0-.47.13-.67.58-.79.72-.2,1.41-.49,2.13-.7.39-.11.52-.27.47-.71a16.66,16.66,0,0,0-2.48-7,.91.91,0,0,0-.69-.34c-2.08,0-4.17,0-6.25,0A2.24,2.24,0,0,0,9.8,19.83v1.91c-.31,0-.54,0-.76,0a1.19,1.19,0,0,0-1.29.67,1.31,1.31,0,0,0,.34,1.49,10,10,0,0,0,.86.86,2.58,2.58,0,0,1,.86,2c0,2.35,0,4.7,0,7.06v2a5.37,5.37,0,0,1,4.53,2.52,1.13,1.13,0,0,0,1.14.62L14,34.76H12v-2c.06-.05.07-.07.09-.07l3.73,0A2.53,2.53,0,0,0,18.36,30.4ZM46.15,60.92a3.7,3.7,0,0,1,2.73-6.58V52.17a3.69,3.69,0,0,1-2.78-6.53l-1.46-1.56a3.69,3.69,0,0,1-6.58-2.73H35.89a3.7,3.7,0,0,1-6.57,2.75l-1.53,1.5a3.76,3.76,0,0,1,1.46,2.82A9,9,0,0,1,31,47.87a2.15,2.15,0,0,0,1.19-.5,7.6,7.6,0,1,1,0,11.75,1.5,1.5,0,0,0-.74-.4c-.65-.06-1.3,0-2,0a2.35,2.35,0,0,1-1.67,2.14l1.64,1.54a3.53,3.53,0,0,1,4.28-1.08,3.61,3.61,0,0,1,2.26,3.89h2.15a3.69,3.69,0,0,1,6.58-2.74Zm8.26-37v10.8H65.2V26.92L60,33,57,30.09,58.5,28.5l1.21,1.44,5.14-6Zm-33.75,37c-6.32.19-11-2.47-14.07-8v12.3H20.66ZM19.88,6.47a9.45,9.45,0,0,0-8.2-4.27A9.4,9.4,0,0,0,3.89,6.46l.3.07A2.16,2.16,0,0,1,6.54,9v1.87H8.72c0-1.48,0-2.9,0-4.32a2.13,2.13,0,0,1,2.15-2.15c.75,0,1.5,0,2.24,0a2.12,2.12,0,0,1,2.12,2.11c0,.66,0,1.31,0,2v2.4h2.17V9.19C17.41,7.4,18,6.68,19.88,6.47ZM39.14,24l-4.2,4.69L32,25.74l1.45-1.56,1.24,1.43,3.4-3.83H30.5v8.61h8.64ZM23.92,13.1H2.24v2.07H23.92Zm5.45,43.41c1.95,0,3.82.07,5.69,0a3.2,3.2,0,0,0,3-2.87,1.15,1.15,0,0,0-1.2-1.44,13.1,13.1,0,0,0-2.17,0,1.81,1.81,0,0,1-2.35-1.44,1,1,0,0,0-.1-.17,1,1,0,0,0-1.63-.24,10.6,10.6,0,0,0-1,1,.93.93,0,0,0-.22.53C29.36,53.39,29.37,54.91,29.37,56.51ZM7.57,28.2a2.28,2.28,0,0,0-.93-2.64,1,1,0,0,1-.15-.14,3.45,3.45,0,0,1,.8-5.54.76.76,0,0,0,.33-.36c.16-.69.29-1.39.44-2.13H4.19c-1.91,0-2,.06-2,2C2.14,23.46,4.16,26.24,7.57,28.2ZM33.84,48.9A1.35,1.35,0,0,0,35.55,50a10.15,10.15,0,0,1,1.56,0,3.23,3.23,0,0,1,3.12,3.13,5.41,5.41,0,0,1-3.32,5.14l-.7.3a5.39,5.39,0,0,0,4-9.63A5.27,5.27,0,0,0,33.84,48.9ZM15.3,41.18c.24,1.43.41,2.77.69,4.09a7.76,7.76,0,0,0,.81,2.2,5.05,5.05,0,0,0,3.63,2.42c0-.29,0-.49,0-.68a18.69,18.69,0,0,0-2.29-6.76c-.45-.78-.91-1.36-1.92-1.18A3.5,3.5,0,0,1,15.3,41.18ZM13,10.85V6.56h-2.1v4.29Zm-8.7,0V8.76c-1.9-.12-1.48-.27-1.88,1.33-.06.24-.09.48-.14.79h2Zm17.15,0c-.47-2.52-.3-2.23-1.85-2.07v2.07ZM33.73,8.71a1.08,1.08,0,0,0,0,2.16,1.15,1.15,0,0,0,1.1-1.06A1.13,1.13,0,0,0,33.73,8.71ZM63.05,53.27A1.12,1.12,0,0,0,62,52.18a1.15,1.15,0,0,0-1.1,1.07,1.08,1.08,0,0,0,2.16,0Z"/><path class="cls-1" d="M59,3.63l1.66,1.43-7.2,8.4-3-3L52,9.06l1.12,1.4Z"/></g></g></svg>