<svg xmlns="http://www.w3.org/2000/svg" viewBox="0 0 78.49 56.97"><defs><style>.cls-1{fill:#fff;}</style></defs><g id="Layer_2" data-name="Layer 2"><g id="dich_vu" data-name="dich vu"><path class="cls-1" d="M71,54.44c.48,0,.9,0,1.32,0a1.22,1.22,0,0,1,1.16,1.25A1.25,1.25,0,0,1,72.26,57h-71A1.24,1.24,0,0,1,0,55.66a1.21,1.21,0,0,1,1.28-1.22H7.55V31.64H4.2c-1.27,0-1.67-.39-1.67-1.63,0-5.67,0-11.34,0-17a1.59,1.59,0,0,1,1.2-1.7Q18.54,5.77,33.34.2c1.38-.52,2.1,0,2.1,1.43,0,3.22,0,6.43,0,9.76H74.15c1.48,0,1.81.33,1.81,1.8V16c0,1.41-.35,1.74-1.78,1.75h-.69v7.61c.4,0,.81,0,1.22,0A1.19,1.19,0,0,1,76,26.57c0,1.27,0,2.54,0,3.8a1.2,1.2,0,0,1-1.31,1.26c-1.21,0-2.42,0-3.69,0Zm-31.71-.06H68.31V31.68H10.17v22.7h1.22V35.81c0-1.25.4-1.63,1.66-1.63H37.58c1.27,0,1.66.39,1.66,1.64V54.38ZM5.06,29.06H32.87V3.15l-.35.11Q19,8.32,5.57,13.34c-.49.19-.52.48-.52.9q0,4.94,0,9.88ZM70.87,17.77H39.31v7.5H70.87ZM73.4,27.84H38.34c-1.22,0-1.62-.4-1.62-1.59,0-3.12,0-6.23,0-9.34,0-1.37.36-1.72,1.73-1.72H73.37V14H35.49V29.06H73.4ZM14,36.72V54.38h3.69V36.72Zm6.34,0V54.4H24V36.74Zm10,17.66V36.77H26.62V54.4Zm6.35-17.66H33V54.38h3.72Z"/><path class="cls-1" d="M76.55,57h-.63a1.26,1.26,0,0,1,0-2.52c.43,0,.85,0,1.27,0a1.26,1.26,0,0,1,0,2.52Z"/><path class="cls-1" d="M54.48,34.18h11c1.21,0,1.62.4,1.62,1.6v12c0,1.14-.43,1.55-1.59,1.55H43.36c-1.16,0-1.58-.41-1.58-1.56V35.69c0-1.09.43-1.51,1.54-1.51Zm-5.14,2.58h-5v10h5Zm2.6,10h5v-10h-5Zm7.62-10v10h5v-10Z"/><path class="cls-1" d="M19.61,27.84H9.24c-1.25,0-1.64-.39-1.64-1.65q0-4.71,0-9.42c0-1.16.4-1.58,1.55-1.58h21c1.1,0,1.52.42,1.52,1.53q0,4.79,0,9.57c0,1.14-.42,1.55-1.59,1.55ZM10.18,17.75v7.5h5v-7.5Zm18.91,0h-5v7.5h5Zm-7.6,0H17.77v7.51h3.72Z"/></g></g></svg>